<svg xmlns="http://www.w3.org/2000/svg" viewBox="0 0 345.82 296.27"><defs><style>.cls-1{fill:#ed8eb7;}.cls-1,.cls-2,.cls-3,.cls-4,.cls-5,.cls-6{stroke:#ed1973;stroke-linecap:round;stroke-linejoin:round;}.cls-2{fill:#fff1b3;}.cls-3{fill:#ffe166;}.cls-4{fill:#fff;}.cls-5{fill:#ffe98c;}.cls-6{fill:none;}</style></defs><title>Asset 8</title><g id="Layer_2" data-name="Layer 2"><g id="letters"><path class="cls-1" d="M290.05,119.4a13.5,13.5,0,1,0-24.85,0,17.33,17.33,0,1,0,24.85,0Z"/><line class="cls-1" x1="277.63" y1="129.12" x2="277.63" y2="164.13"/><path class="cls-1" d="M220.33,92.65a13.5,13.5,0,1,0-24.85,0,17.33,17.33,0,1,0,24.85,0Z"/><line class="cls-1" x1="207.91" y1="102.37" x2="207.91" y2="137.37"/><polygon class="cls-2" points="173.69 137.37 52.46 207.38 173.71 277.38 294.95 207.38 173.69 137.37"/><polygon class="cls-3" points="139.51 20.24 173.7 0.5 207.9 20.24 173.7 39.98 139.51 20.24"/><polygon class="cls-4" points="139.51 20.24 139.52 99.19 173.71 158.41 173.7 39.98 139.51 20.24"/><polygon class="cls-5" points="207.9 20.24 173.7 39.98 173.71 158.41 207.9 99.19 207.9 20.24"/><polygon class="cls-4" points="173.71 158.41 122.41 207.77 173.69 237.38 173.71 158.41"/><polygon class="cls-5" points="173.71 158.41 224.99 207.77 173.69 237.38 173.71 158.41"/><polygon class="cls-5" points="277.63 116.79 277.63 141.26 304.12 156.56 290.87 136.68 304.13 132.08 277.63 116.79"/><line class="cls-6" x1="277.62" y1="177.97" x2="277.62" y2="116.79"/><polygon class="cls-5" points="104.42 96.79 104.42 121.26 130.91 136.55 117.66 116.67 130.92 112.08 104.42 96.79"/><line class="cls-6" x1="104.42" y1="157.97" x2="104.42" y2="96.79"/><polygon class="cls-5" points="242.99 96.79 242.99 121.26 269.48 136.56 256.23 116.67 269.49 112.08 242.99 96.79"/><line class="cls-6" x1="242.99" y1="157.97" x2="242.99" y2="96.79"/><path class="cls-1" d="M30.25,184.4a13.5,13.5,0,1,0-24.85,0,17.33,17.33,0,1,0,24.85,0Z"/><line class="cls-1" x1="17.83" y1="194.12" x2="17.83" y2="229.13"/><path class="cls-1" d="M82.21,113.57a13.49,13.49,0,1,0-24.84,0,17.32,17.32,0,1,0,24.84,0Z"/><line class="cls-1" x1="69.79" y1="123.3" x2="69.79" y2="158.3"/><polygon class="cls-5" points="69.78 118.2 69.78 142.67 96.28 157.97 83.03 138.08 96.29 133.49 69.78 118.2"/><line class="cls-6" x1="69.79" y1="179.38" x2="69.79" y2="118.2"/><path class="cls-1" d="M47.56,132.17a13.5,13.5,0,1,0-24.85,0,17.33,17.33,0,1,0,24.85,0Z"/><line class="cls-1" x1="35.14" y1="141.89" x2="35.14" y2="176.89"/><polygon class="cls-2" points="141.54 270.68 110.48 288.6 110.5 295.77 141.55 277.85 141.54 270.68"/><polygon class="cls-3" points="141.54 270.68 136.21 267.59 105.25 285.52 110.48 288.6 141.54 270.68"/><polygon class="cls-4" points="110.5 295.77 105.25 292.52 105.25 285.52 110.48 288.6 110.5 295.77"/><polygon class="cls-2" points="105.25 249.7 74.18 267.62 74.2 274.8 105.25 256.87 105.25 249.7"/><polygon class="cls-3" points="105.25 249.7 99.91 246.62 68.95 264.54 74.18 267.62 105.25 249.7"/><polygon class="cls-4" points="74.2 274.8 68.95 271.54 68.95 264.54 74.18 267.62 74.2 274.8"/><polygon class="cls-2" points="68.95 228.72 37.88 246.64 37.9 253.82 68.95 235.89 68.95 228.72"/><polygon class="cls-3" points="68.95 228.72 63.61 225.64 32.65 243.56 37.88 246.64 68.95 228.72"/><polygon class="cls-4" points="37.9 253.82 32.65 250.56 32.65 243.56 37.88 246.64 37.9 253.82"/><polygon class="cls-4" points="236.43 257.81 267.49 275.73 267.48 282.91 236.43 264.99 236.43 257.81"/><polygon class="cls-3" points="236.43 257.81 241.77 254.73 272.73 272.66 267.49 275.73 236.43 257.81"/><polygon class="cls-2" points="267.48 282.91 272.73 279.66 272.73 272.66 267.49 275.73 267.48 282.91"/><polygon class="cls-4" points="272.73 236.84 303.79 254.76 303.78 261.94 272.73 244.01 272.73 236.84"/><polygon class="cls-3" points="272.73 236.84 278.07 233.75 309.02 251.68 303.79 254.76 272.73 236.84"/><polygon class="cls-2" points="303.78 261.94 309.02 258.68 309.02 251.68 303.79 254.76 303.78 261.94"/><polygon class="cls-4" points="309.02 215.86 340.09 233.78 340.07 240.96 309.02 223.03 309.02 215.86"/><polygon class="cls-3" points="309.02 215.86 314.36 212.78 345.32 230.7 340.09 233.78 309.02 215.86"/><polygon class="cls-2" points="340.07 240.96 345.32 237.7 345.32 230.7 340.09 233.78 340.07 240.96"/><path class="cls-1" d="M316,198.8a13.64,13.64,0,0,0,1.07-5.28,13.5,13.5,0,1,0-25.92,5.27,17.32,17.32,0,1,0,24.85,0Z"/><line class="cls-1" x1="303.61" y1="208.52" x2="303.61" y2="243.52"/><path class="cls-1" d="M255.42,232.55a13.5,13.5,0,1,0-24.85,0,17.33,17.33,0,1,0,24.85,0Z"/><line class="cls-1" x1="243" y1="242.27" x2="243" y2="277.28"/><path class="cls-1" d="M116.85,233.63a13.49,13.49,0,1,0-25.92-5.27A13.41,13.41,0,0,0,92,233.63a17.32,17.32,0,1,0,24.85,0Z"/><line class="cls-1" x1="104.42" y1="243.36" x2="104.42" y2="278.36"/></g></g></svg>