<svg xmlns="http://www.w3.org/2000/svg" xmlns:xlink="http://www.w3.org/1999/xlink" viewBox="0 0 1291.5 823.6"><defs><style>.cls-1,.cls-18,.cls-4,.cls-8{fill:none;}.cls-1,.cls-2,.cls-22,.cls-25,.cls-3,.cls-5,.cls-6,.cls-8{stroke:#6046f8;}.cls-1,.cls-18,.cls-2,.cls-22,.cls-25,.cls-3,.cls-5,.cls-6,.cls-8{stroke-linecap:round;stroke-linejoin:round;}.cls-1,.cls-2,.cls-25,.cls-3,.cls-5,.cls-6{stroke-width:1.18px;}.cls-2,.cls-22,.cls-9{fill:#fff;}.cls-12,.cls-3{fill:#ed6ba3;}.cls-16,.cls-5{fill:#ed478e;}.cls-11,.cls-6{fill:#ed8eb7;}.cls-7{clip-path:url(#clip-path);}.cls-8{stroke-width:0.59px;}.cls-10{clip-path:url(#clip-path-2);}.cls-13{clip-path:url(#clip-path-3);}.cls-14{fill:#6046f8;}.cls-15{clip-path:url(#clip-path-4);}.cls-17{clip-path:url(#clip-path-5);}.cls-18{stroke:#ed478e;stroke-width:5.29px;}.cls-19{clip-path:url(#clip-path-6);}.cls-20{clip-path:url(#clip-path-7);}.cls-21{clip-path:url(#clip-path-8);}.cls-22{stroke-width:1.05px;}.cls-23{isolation:isolate;}.cls-24{clip-path:url(#clip-path-9);}.cls-25{fill:gray;}</style><clipPath id="clip-path"><polygon class="cls-1" points="27.8 175 27.8 186.8 102.6 230 102.9 218.4 27.8 175"/></clipPath><clipPath id="clip-path-2"><polygon class="cls-2" points="198.9 77.1 198.9 100.6 241.7 125.3 241.7 101.8 198.9 77.1"/></clipPath><clipPath id="clip-path-3"><polygon class="cls-3" points="193.7 125.5 173.4 137.2 193.7 149 214.1 137.2 193.7 125.5"/></clipPath><clipPath id="clip-path-4"><polygon class="cls-3" points="299.4 134.6 279 146.3 299.4 158.1 319.7 146.4 299.4 134.6"/></clipPath><clipPath id="clip-path-5"><polygon class="cls-5" points="409.9 277.4 409.9 300.9 392.4 311 392.4 287.5 409.9 277.4"/></clipPath><clipPath id="clip-path-6"><polygon class="cls-1" points="954.2 523.1 954.2 534.9 998.2 548.8 998.2 537.3 954.2 523.1"/></clipPath><clipPath id="clip-path-7"><polygon class="cls-1" points="954.2 540.8 954.2 552.5 998.2 566.5 998.2 554.9 954.2 540.8"/></clipPath><clipPath id="clip-path-8"><polygon class="cls-3" points="929.7 605 909.4 616.8 929.7 628.5 950.1 616.8 929.7 605"/></clipPath><clipPath id="clip-path-9"><polygon class="cls-4" points="1114.7 641 1114.6 605.4 1138.6 603.5 1138.4 638.8 1114.7 641"/></clipPath></defs><title>Asset 8</title><g id="Layer_2" data-name="Layer 2"><g id="letters"><path class="cls-6" d="M279,172.6c-1.7,6-7.8,10.2-12.3,12.8l-79.2,45.7a56.8,56.8,0,0,1-21.7,7.2c-8.3,1-30,1-40.1-.7-4.3-.7-15.2-2.8-22.8-7.1L27.8,187.1V116.5l75.1,43.4c7.6,4.4,18.5,6.5,22.8,7.2,10.1,1.7,31.8,1.6,40.1.6a55.1,55.1,0,0,0,21.7-7.2l79.2-45.7c4.5-2.6,10.6-6.7,12.3-12.8a54.2,54.2,0,0,0,1.6-13.8v77.7Z"/><path class="cls-5" d="M192.3,116.6V62.7L229.2,84l.8.5c1,2,1.5,6.4-.1,10.3Z"/><path class="cls-6" d="M152.7,139.4c-2.6.6-11.8.4-17-.3h-.2L97.8,117.3l94.5-54.6v53.9Z"/><polygon class="cls-2" points="27.8 116.5 102.9 159.9 102.9 230.5 27.8 187.1 27.8 116.5"/><polygon class="cls-5" points="68.5 151.8 68.5 175.3 78.7 181.2 78.7 157.7 68.5 151.8"/><polygon class="cls-6" points="68.5 175.3 78.7 169.5 78.7 157.7 68.5 151.8 68.5 175.3"/><line class="cls-6" x1="27.8" y1="175.3" x2="102.9" y2="218.7"/><polygon class="cls-5" points="38 134.2 38 157.7 48.2 163.6 48.2 140 38 134.2"/><polygon class="cls-6" points="38 157.7 48.2 151.8 48.2 140 38 134.2 38 157.7"/><polygon class="cls-5" points="52.9 142.7 52.9 166.2 63.1 172.1 63.1 148.6 52.9 142.7"/><polygon class="cls-6" points="52.9 166.2 63.1 160.3 63.1 148.6 52.9 142.7 52.9 166.2"/><polygon class="cls-5" points="83.8 160.6 83.8 184.2 94 190 94 166.5 83.8 160.6"/><polygon class="cls-6" points="83.8 184.2 94 178.3 94 166.5 83.8 160.6 83.8 184.2"/><g class="cls-7"><line class="cls-8" x1="141.4" y1="155.7" x2="141.4" y2="273.3"/><line class="cls-8" x1="137.9" y1="155.7" x2="137.9" y2="273.3"/><line class="cls-8" x1="134.4" y1="155.7" x2="134.4" y2="273.3"/><line class="cls-8" x1="130.9" y1="155.7" x2="130.9" y2="273.3"/><line class="cls-8" x1="127.3" y1="155.7" x2="127.3" y2="273.3"/><line class="cls-8" x1="123.8" y1="155.7" x2="123.8" y2="273.3"/><line class="cls-8" x1="120.3" y1="155.7" x2="120.3" y2="273.3"/><line class="cls-8" x1="116.7" y1="155.7" x2="116.7" y2="273.3"/><line class="cls-8" x1="113.2" y1="155.7" x2="113.2" y2="273.3"/><line class="cls-8" x1="109.7" y1="155.7" x2="109.7" y2="273.3"/><line class="cls-8" x1="106.2" y1="155.7" x2="106.2" y2="273.3"/><line class="cls-8" x1="102.6" y1="155.7" x2="102.6" y2="273.3"/><line class="cls-8" x1="99.1" y1="155.7" x2="99.1" y2="273.3"/><line class="cls-8" x1="95.6" y1="155.7" x2="95.6" y2="273.3"/><line class="cls-8" x1="92" y1="155.7" x2="92" y2="273.3"/><line class="cls-8" x1="88.5" y1="155.7" x2="88.5" y2="273.3"/><line class="cls-8" x1="85" y1="155.7" x2="85" y2="273.3"/><line class="cls-8" x1="81.5" y1="155.7" x2="81.5" y2="273.3"/><line class="cls-8" x1="77.9" y1="155.7" x2="77.9" y2="273.3"/><line class="cls-8" x1="74.4" y1="155.7" x2="74.4" y2="273.3"/><line class="cls-8" x1="70.9" y1="155.7" x2="70.9" y2="273.3"/><line class="cls-8" x1="67.3" y1="155.7" x2="67.3" y2="273.3"/><line class="cls-8" x1="63.8" y1="155.7" x2="63.8" y2="273.3"/><line class="cls-8" x1="60.3" y1="155.7" x2="60.3" y2="273.3"/><line class="cls-8" x1="56.8" y1="155.7" x2="56.8" y2="273.3"/><line class="cls-8" x1="53.2" y1="155.7" x2="53.2" y2="273.3"/><line class="cls-8" x1="49.7" y1="155.7" x2="49.7" y2="273.3"/><line class="cls-8" x1="46.2" y1="155.7" x2="46.2" y2="273.3"/><line class="cls-8" x1="42.6" y1="155.7" x2="42.6" y2="273.3"/><line class="cls-8" x1="39.1" y1="155.7" x2="39.1" y2="273.3"/><line class="cls-8" x1="35.6" y1="155.7" x2="35.6" y2="273.3"/><line class="cls-8" x1="32.1" y1="155.7" x2="32.1" y2="273.3"/><line class="cls-8" x1="28.5" y1="155.7" x2="28.5" y2="273.3"/><line class="cls-8" x1="25" y1="155.7" x2="25" y2="273.3"/><line class="cls-8" x1="21.5" y1="155.7" x2="21.5" y2="273.3"/><line class="cls-8" x1="17.9" y1="155.7" x2="17.9" y2="273.3"/><line class="cls-8" x1="14.4" y1="155.7" x2="14.4" y2="273.3"/><line class="cls-8" x1="10.9" y1="155.7" x2="10.9" y2="273.3"/><line class="cls-8" x1="7.4" y1="155.7" x2="7.4" y2="273.3"/><line class="cls-8" x1="3.8" y1="155.7" x2="3.8" y2="273.3"/><line class="cls-8" x1="0.3" y1="155.7" x2="0.3" y2="273.3"/></g><polygon class="cls-1" points="27.8 175 27.8 186.8 102.6 230 102.9 218.4 27.8 175"/><polygon class="cls-5" points="48.1 170.6 48.1 194.2 68.5 205.9 68.5 182.4 48.1 170.6"/><polygon class="cls-6" points="48.1 194.2 68.5 182.4 48.1 170.6 48.1 194.2"/><polygon class="cls-2" points="44.7 196.2 65.1 207.9 65.1 212.6 44.7 200.9 44.7 196.2"/><polygon class="cls-5" points="44.7 196.2 48.2 194.1 68.5 205.9 65.1 207.9 44.7 196.2"/><polygon class="cls-3" points="65.1 212.6 68.5 210.5 68.5 205.9 65.1 207.9 65.1 212.6"/><polygon class="cls-2" points="41.3 203.1 61.6 214.8 61.6 219.5 41.3 207.8 41.3 203.1"/><polygon class="cls-5" points="41.3 203.1 44.8 201 65.1 212.8 61.6 214.8 41.3 203.1"/><polygon class="cls-3" points="61.6 219.5 65.1 217.4 65.1 212.8 61.6 214.8 61.6 219.5"/><line class="cls-6" x1="27.8" y1="128.3" x2="102.9" y2="171.6"/><polygon class="cls-5" points="184.7 77.7 184.7 101.2 144 124.7 144 101.2 184.7 77.7"/><polygon class="cls-2" points="184.7 101.2 182.1 99.7 182.1 79.2 184.7 77.7 184.7 101.2"/><polygon class="cls-5" points="184.7 101.2 144 124.7 144 121.7 182.1 99.7 184.7 101.2"/><polygon class="cls-5" points="139.3 103.5 139.3 127 129.1 132.9 129.1 109.4 139.3 103.5"/><polygon class="cls-2" points="139.3 127 136.6 125.5 136.6 105 139.3 103.5 139.3 127"/><polygon class="cls-3" points="139.3 127 129.1 132.9 129.1 129.9 136.6 125.5 139.3 127"/><polygon class="cls-5" points="155.1 124.1 155.1 147.6 144.9 153.5 144.9 129.9 155.1 124.1"/><polygon class="cls-2" points="155.1 147.6 152.5 146.1 152.5 125.6 155.1 124.1 155.1 147.6"/><polygon class="cls-3" points="155.1 147.6 144.9 153.5 144.9 150.5 152.5 146.1 155.1 147.6"/><polygon class="cls-9" points="198.9 77.1 198.9 100.6 241.7 125.3 241.7 101.8 198.9 77.1"/><g class="cls-10"><line class="cls-8" x1="312.3" y1="58.2" x2="312.3" y2="175.8"/><line class="cls-8" x1="308.7" y1="58.2" x2="308.7" y2="175.8"/><line class="cls-8" x1="305.2" y1="58.2" x2="305.2" y2="175.8"/><line class="cls-8" x1="301.7" y1="58.2" x2="301.7" y2="175.8"/><line class="cls-8" x1="298.1" y1="58.2" x2="298.1" y2="175.8"/><line class="cls-8" x1="294.6" y1="58.2" x2="294.6" y2="175.8"/><line class="cls-8" x1="291.1" y1="58.2" x2="291.1" y2="175.8"/><line class="cls-8" x1="287.6" y1="58.2" x2="287.6" y2="175.8"/><line class="cls-8" x1="284" y1="58.2" x2="284" y2="175.8"/><line class="cls-8" x1="280.5" y1="58.2" x2="280.5" y2="175.8"/><line class="cls-8" x1="277" y1="58.2" x2="277" y2="175.8"/><line class="cls-8" x1="273.4" y1="58.2" x2="273.4" y2="175.8"/><line class="cls-8" x1="269.9" y1="58.2" x2="269.9" y2="175.8"/><line class="cls-8" x1="266.4" y1="58.2" x2="266.4" y2="175.8"/><line class="cls-8" x1="262.9" y1="58.2" x2="262.9" y2="175.8"/><line class="cls-8" x1="259.3" y1="58.2" x2="259.3" y2="175.8"/><line class="cls-8" x1="255.8" y1="58.2" x2="255.8" y2="175.8"/><line class="cls-8" x1="252.3" y1="58.2" x2="252.3" y2="175.8"/><line class="cls-8" x1="248.7" y1="58.2" x2="248.7" y2="175.8"/><line class="cls-8" x1="245.2" y1="58.2" x2="245.2" y2="175.8"/><line class="cls-8" x1="241.7" y1="58.2" x2="241.7" y2="175.8"/><line class="cls-8" x1="238.2" y1="58.2" x2="238.2" y2="175.8"/><line class="cls-8" x1="234.6" y1="58.2" x2="234.6" y2="175.8"/><line class="cls-8" x1="231.1" y1="58.2" x2="231.1" y2="175.8"/><line class="cls-8" x1="227.6" y1="58.2" x2="227.6" y2="175.8"/><line class="cls-8" x1="224" y1="58.2" x2="224" y2="175.8"/><line class="cls-8" x1="220.5" y1="58.2" x2="220.5" y2="175.8"/><line class="cls-8" x1="217" y1="58.2" x2="217" y2="175.8"/><line class="cls-8" x1="213.5" y1="58.2" x2="213.5" y2="175.8"/><line class="cls-8" x1="209.9" y1="58.2" x2="209.9" y2="175.8"/><line class="cls-8" x1="206.4" y1="58.2" x2="206.4" y2="175.8"/><line class="cls-8" x1="202.9" y1="58.2" x2="202.9" y2="175.8"/><line class="cls-8" x1="199.3" y1="58.2" x2="199.3" y2="175.8"/><line class="cls-8" x1="195.8" y1="58.2" x2="195.8" y2="175.8"/><line class="cls-8" x1="192.3" y1="58.2" x2="192.3" y2="175.8"/><line class="cls-8" x1="188.8" y1="58.2" x2="188.8" y2="175.8"/><line class="cls-8" x1="185.2" y1="58.2" x2="185.2" y2="175.8"/><line class="cls-8" x1="181.7" y1="58.2" x2="181.7" y2="175.8"/><line class="cls-8" x1="178.2" y1="58.2" x2="178.2" y2="175.8"/><line class="cls-8" x1="174.6" y1="58.2" x2="174.6" y2="175.8"/><line class="cls-8" x1="171.1" y1="58.2" x2="171.1" y2="175.8"/></g><polygon class="cls-1" points="198.9 77.1 198.9 100.6 241.7 125.3 241.7 101.8 198.9 77.1"/><path class="cls-5" d="M279.2,79c-1.7-4.6-6.8-9.8-13-13.3L191,22.3,27.8,116.5l75.1,43.4c7.6,4.4,18.5,6.5,22.8,7.2,10.1,1.7,31.8,1.6,40.1.6a55.1,55.1,0,0,0,21.7-7.2l79.2-45.7c4.5-2.6,10.6-6.7,12.3-12.8C280.1,98.2,281.9,85.3,279.2,79ZM192.3,62.7,229.2,84l.8.5c1,2,1.5,6.4-.1,10.3l-77.2,44.6c-2.6.6-11.8.4-17-.3h-.2L97.8,117.3Z"/><polygon class="cls-2" points="24.3 126.2 99.7 169.7 93.8 180.5 18.5 136.8 24.3 126.2"/><polygon class="cls-5" points="24.3 126.2 27.8 124.2 102.9 167.7 99.7 169.7 24.3 126.2"/><polygon class="cls-3" points="93.8 180.5 102.9 172.4 102.9 167.7 99.7 169.7 93.8 180.5"/><polygon class="cls-5" points="192.7 0.6 172.3 12.3 192.7 24.1 213 12.3 192.7 0.6"/><polygon class="cls-2" points="172.3 12.3 172.3 41.8 192.7 53.5 192.7 24.1 172.3 12.3"/><polygon class="cls-11" points="213 12.3 192.7 24.1 192.7 53.5 213 41.8 213 12.3"/><polygon class="cls-1" points="213 12.3 192.7 24.1 192.7 53.5 213 41.8 213 12.3"/><polygon class="cls-12" points="193.7 125.5 173.4 137.2 193.7 149 214.1 137.2 193.7 125.5"/><g class="cls-13"><polygon class="cls-2" points="183.6 141.1 203.9 152.9 203.9 157.6 183.6 145.8 183.6 141.1"/><polygon class="cls-5" points="183.6 141.1 187.1 139.1 207.4 150.9 203.9 152.9 183.6 141.1"/><polygon class="cls-3" points="203.9 157.6 207.4 155.5 207.4 150.9 203.9 152.9 203.9 157.6"/><polygon class="cls-2" points="180.1 148 200.5 159.8 200.5 164.5 180.1 152.7 180.1 148"/><polygon class="cls-5" points="180.1 148 183.6 146 203.9 157.7 200.5 159.8 180.1 148"/><polygon class="cls-3" points="200.5 164.5 203.9 162.3 203.9 157.7 200.5 159.8 200.5 164.5"/><polygon class="cls-2" points="190.3 127.5 210.7 139.3 210.7 144 190.3 132.2 190.3 127.5"/><polygon class="cls-5" points="190.3 127.5 193.8 125.5 214.1 137.2 210.7 139.3 190.3 127.5"/><polygon class="cls-3" points="210.7 144 214.1 141.8 214.1 137.2 210.7 139.3 210.7 144"/><polygon class="cls-2" points="186.9 134.4 207.3 146.1 207.2 150.9 186.9 139.1 186.9 134.4"/><polygon class="cls-5" points="186.9 134.4 190.4 132.4 210.7 144.1 207.3 146.1 186.9 134.4"/><polygon class="cls-3" points="207.2 150.9 210.7 148.7 210.7 144.1 207.3 146.1 207.2 150.9"/></g><polygon class="cls-1" points="193.7 125.5 173.4 137.2 193.7 149 214.1 137.2 193.7 125.5"/><polygon class="cls-2" points="230 41.5 209.6 53.3 209.6 58 230 46.2 230 41.5"/><polygon class="cls-5" points="230 41.5 226.5 39.5 206.2 51.2 209.6 53.3 230 41.5"/><polygon class="cls-3" points="209.6 58 206.2 55.8 206.2 51.2 209.6 53.3 209.6 58"/><polygon class="cls-2" points="233.4 48.4 213.1 60.2 213.1 64.9 233.4 53.1 233.4 48.4"/><polygon class="cls-5" points="233.4 48.4 229.9 46.4 209.6 58.1 213.1 60.2 233.4 48.4"/><polygon class="cls-3" points="213.1 64.9 209.6 62.7 209.6 58.1 213.1 60.2 213.1 64.9"/><polygon class="cls-2" points="223.3 27.9 202.9 39.6 202.9 44.4 223.3 32.6 223.3 27.9"/><polygon class="cls-5" points="223.3 27.9 219.8 25.9 199.4 37.6 202.9 39.6 223.3 27.9"/><polygon class="cls-3" points="202.9 44.4 199.4 42.2 199.4 37.6 202.9 39.6 202.9 44.4"/><polygon class="cls-2" points="226.7 34.8 206.3 46.5 206.3 51.2 226.7 39.5 226.7 34.8"/><polygon class="cls-5" points="226.7 34.8 223.2 32.8 202.9 44.5 206.3 46.5 226.7 34.8"/><polygon class="cls-3" points="206.3 51.2 202.9 49.1 202.9 44.5 206.3 46.5 206.3 51.2"/><polygon class="cls-2" points="216.4 14.3 196.1 26 196.1 30.7 216.4 19 216.4 14.3"/><polygon class="cls-5" points="216.4 14.3 212.9 12.3 192.6 24 196.1 26 216.4 14.3"/><polygon class="cls-3" points="196.1 30.7 192.6 28.6 192.6 24 196.1 26 196.1 30.7"/><polygon class="cls-2" points="219.9 21.2 199.5 32.9 199.5 37.6 219.9 25.9 219.9 21.2"/><polygon class="cls-5" points="219.9 21.2 216.4 19.1 196.1 30.9 199.5 32.9 219.9 21.2"/><polygon class="cls-3" points="199.5 37.6 196.1 35.5 196.1 30.9 199.5 32.9 199.5 37.6"/><polygon class="cls-5" points="143.1 8.2 71.8 49.4 82 55.3 153.3 14.1 143.1 8.2"/><polygon class="cls-2" points="71.8 49.4 71.8 102.3 82 108.2 82 55.3 71.8 49.4"/><polygon class="cls-11" points="153.3 14.1 82 55.3 82 108.2 153.1 67.1 153.3 14.1"/><polygon class="cls-1" points="153.3 14.1 82 55.3 82 108.2 153.1 67.1 153.3 14.1"/><polygon class="cls-2" points="127.8 29.2 127.8 29.2 107.4 40.9 107.4 40.9 87.1 52.7 87.1 99.7 97.3 84.4 107.4 88 107.4 88 107.4 88 117.6 72.7 127.8 76.2 127.8 76.2 127.8 76.2 138 60.9 148.2 64.4 148.2 17.4 127.8 29.2"/><path class="cls-14" d="M102,54a2.7,2.7,0,0,0-2.1.3l-2.7,1.5C95.4,56.9,94,60,93.6,61a12.5,12.5,0,0,0-.6,1.8l-.2.7,3.4-.6.2-.6a8.5,8.5,0,0,1,.9-1.9l2.6-1.5.5.3v2.3l-5.1,6.4a9,9,0,0,0-2.1,5.4v6.4l10.6-6.1V69l-7.1,4.1V71.4l.2-.3,5-6.3a9.4,9.4,0,0,0,2.1-5.4V57.2a4.1,4.1,0,0,0-.5-2.1A3.9,3.9,0,0,0,102,54Z"/><path class="cls-14" d="M114.8,46.3a2.5,2.5,0,0,0-1.8.4l-2.8,1.6a5.7,5.7,0,0,0-1.8,1.7,35.6,35.6,0,0,0-2,3.8,7.4,7.4,0,0,0-.5,2.5V66.9a3.4,3.4,0,0,0,.5,2,5,5,0,0,0,2,1.5,3,3,0,0,0,1.8-.3l2.8-1.7a5.7,5.7,0,0,0,1.8-1.7,17.4,17.4,0,0,0,2-3.8,7.4,7.4,0,0,0,.5-2.5V49.8a3.7,3.7,0,0,0-.5-2A4.4,4.4,0,0,0,114.8,46.3ZM113.7,52V62.3a7.6,7.6,0,0,1-.8,1.6l-2.5,1.5a1.4,1.4,0,0,1-.9-.6V54.4l.9-1.6,2.5-1.5A2.1,2.1,0,0,1,113.7,52Z"/><polygon class="cls-14" points="120.6 47 123.6 45.3 123.6 62.1 127.2 60.1 127.2 38.6 120.6 42.4 120.6 47"/><path class="cls-14" d="M143.4,34.4a4.1,4.1,0,0,0-.5-2.1,5.3,5.3,0,0,0-1.5-1.1,2.4,2.4,0,0,0-2.1.3l-2.9,1.7a6.4,6.4,0,0,0-2,2,16.4,16.4,0,0,0-1.6,2.9,9.1,9.1,0,0,0-.5,2.7v2.7a2.6,2.6,0,0,0,.9,2.3,7.5,7.5,0,0,0-.9,3.4V52a4.1,4.1,0,0,0,.5,2.1,5.7,5.7,0,0,0,1.5,1.2,2.4,2.4,0,0,0,2.1-.4l2.9-1.7a4.8,4.8,0,0,0,2-2,16.4,16.4,0,0,0,1.6-2.9,8.6,8.6,0,0,0,.5-2.7V42.8a3.2,3.2,0,0,0-.8-2.4,8,8,0,0,0,.8-3.3Zm-3.3,4.5h0Zm-.3.2a3,3,0,0,1-.5,1l-2.9,1.7a.9.9,0,0,1-.5-.4V38.9a7.4,7.4,0,0,1,.6-1.1l2.9-1.7a.9.9,0,0,1,.5.4Zm-3.4,7.2,2.8-1.6c.1-.1.5.1.6.3v2.7a3,3,0,0,1-.5,1l-2.9,1.7a.9.9,0,0,1-.5-.4V47.4A4.8,4.8,0,0,1,136.4,46.3Zm3.7,1.2Z"/><polygon class="cls-2" points="269.5 113.2 249.1 125 249.1 153.2 259.3 137.9 269.5 141.4 269.5 113.2"/><polygon class="cls-2" points="206.3 149.8 185.9 161.5 185.9 189.8 196.1 174.5 206.3 178 206.3 149.8"/><path class="cls-11" d="M370.1,125.8v55.6l-73.4,42.1a58.1,58.1,0,0,1-17.6.1l-30.2-17.5s-2.4-2.2-.2-10.3Z"/><path class="cls-1" d="M370.1,125.8v55.6l-73.4,42.1a58.1,58.1,0,0,1-17.6.1l-30.2-17.5s-2.4-2.2-.2-10.3Z"/><path class="cls-2" d="M453.7,174,331.4,244.6a55.4,55.4,0,0,1-21.9,7.1c-7.5.8-29.8,1.5-40.2-.2-8.4-1.1-17.5-4-23.2-7.3l-32.9-19c-6-3.5-11-8.7-13-13.5-1.2-2.6-1.6-6.6-1.6-10.6v70.6c0,4,.4,7.9,1.6,10.5,2,4.9,7,10.1,13,13.6l32.9,19c5.7,3.3,14.8,6.2,23.2,7.3,10.4,1.7,32.7.9,40.2.2a55.4,55.4,0,0,0,21.9-7.1l122.3-70.6Z"/><polygon class="cls-6" points="212.2 233.4 212.2 256.9 252.9 280.4 252.9 256.9 212.2 233.4"/><polygon class="cls-5" points="212.2 256.9 214.9 255.4 214.9 234.9 212.2 233.4 212.2 256.9"/><polygon class="cls-5" points="212.2 256.9 252.9 280.4 252.9 277.4 214.9 255.4 212.2 256.9"/><polygon class="cls-6" points="212.2 264.1 212.2 287.6 253 311.2 252.9 287.6 212.2 264.1"/><polygon class="cls-5" points="212.2 287.6 214.9 286.1 214.9 265.7 212.2 264.1 212.2 287.6"/><polygon class="cls-5" points="212.2 287.6 253 311.2 253 308.1 214.9 286.1 212.2 287.6"/><polygon class="cls-5" points="305 169 305 192.5 294.8 198.4 294.8 174.9 305 169"/><polygon class="cls-2" points="305 192.5 302.3 191 302.3 170.6 305 169 305 192.5"/><polygon class="cls-3" points="305 192.5 294.8 198.4 294.8 195.5 302.3 191 305 192.5"/><polygon class="cls-5" points="320.4 160.4 320.4 183.9 310.2 189.8 310.2 166.2 320.4 160.4"/><polygon class="cls-2" points="320.4 183.9 317.7 182.4 317.7 161.9 320.4 160.4 320.4 183.9"/><polygon class="cls-3" points="320.4 183.9 310.2 189.8 310.2 186.8 317.7 182.4 320.4 183.9"/><polygon class="cls-5" points="305 198.4 305 221.9 294.8 227.8 294.8 204.3 305 198.4"/><polygon class="cls-2" points="305 221.9 302.3 220.4 302.3 200 305 198.4 305 221.9"/><polygon class="cls-3" points="305 221.9 294.8 227.8 294.8 224.9 302.3 220.4 305 221.9"/><polygon class="cls-5" points="320.4 189.8 320.4 213.3 310.2 219.2 310.2 195.6 320.4 189.8"/><polygon class="cls-2" points="320.4 213.3 317.7 211.8 317.7 191.3 320.4 189.8 320.4 213.3"/><polygon class="cls-3" points="320.4 213.3 310.2 219.2 310.2 216.2 317.7 211.8 320.4 213.3"/><polygon class="cls-5" points="336.4 151.8 336.4 175.3 326.3 181.2 326.3 157.6 336.4 151.8"/><polygon class="cls-2" points="336.4 175.3 333.8 173.7 333.8 153.3 336.4 151.8 336.4 175.3"/><polygon class="cls-3" points="336.4 175.3 326.3 181.2 326.3 178.2 333.8 173.7 336.4 175.3"/><polygon class="cls-5" points="336.4 181.2 336.4 204.7 326.3 210.6 326.3 187 336.4 181.2"/><polygon class="cls-2" points="336.4 204.7 333.8 203.2 333.8 182.7 336.4 181.2 336.4 204.7"/><polygon class="cls-3" points="336.4 204.7 326.3 210.6 326.3 207.6 333.8 203.2 336.4 204.7"/><polygon class="cls-5" points="415.5 203.4 415.5 226.9 405.3 232.8 405.3 209.2 415.5 203.4"/><polygon class="cls-2" points="415.5 226.9 412.8 225.3 412.8 204.9 415.5 203.4 415.5 226.9"/><polygon class="cls-3" points="415.5 226.9 405.3 232.8 405.3 229.8 412.8 225.3 415.5 226.9"/><polygon class="cls-5" points="431.2 194.3 431.2 217.9 421 223.7 421 200.2 431.2 194.3"/><polygon class="cls-2" points="431.2 217.9 428.6 216.3 428.6 195.9 431.2 194.3 431.2 217.9"/><polygon class="cls-3" points="431.2 217.9 421 223.7 421 220.8 428.6 216.3 431.2 217.9"/><polygon class="cls-5" points="415.5 232.8 415.5 256.3 405.3 262.2 405.3 238.6 415.5 232.8"/><polygon class="cls-2" points="415.5 256.3 412.8 254.8 412.8 234.3 415.5 232.8 415.5 256.3"/><polygon class="cls-3" points="415.5 256.3 405.3 262.2 405.3 259.2 412.8 254.8 415.5 256.3"/><polygon class="cls-5" points="431.2 223.7 431.2 247.3 421 253.1 421 229.6 431.2 223.7"/><polygon class="cls-2" points="431.2 247.3 428.6 245.7 428.6 225.3 431.2 223.7 431.2 247.3"/><polygon class="cls-3" points="431.2 247.3 421 253.1 421 250.2 428.6 245.7 431.2 247.3"/><polygon class="cls-5" points="446.9 184.9 446.9 208.4 436.7 214.3 436.7 190.8 446.9 184.9"/><polygon class="cls-2" points="446.9 208.4 444.3 206.9 444.3 186.4 446.9 184.9 446.9 208.4"/><polygon class="cls-3" points="446.9 208.4 436.7 214.3 436.7 211.4 444.3 206.9 446.9 208.4"/><polygon class="cls-5" points="446.9 214.3 446.9 237.8 436.7 243.7 436.7 220.2 446.9 214.3"/><polygon class="cls-2" points="446.9 237.8 444.3 236.3 444.3 215.9 446.9 214.3 446.9 237.8"/><polygon class="cls-3" points="446.9 237.8 436.7 243.7 436.7 240.8 444.3 236.3 446.9 237.8"/><polygon class="cls-5" points="353.3 239.5 353.3 263 343.1 268.9 343.1 245.4 353.3 239.5"/><polygon class="cls-2" points="353.3 263 350.6 261.5 350.6 241 353.3 239.5 353.3 263"/><polygon class="cls-3" points="353.3 263 343.1 268.9 343.1 266 350.6 261.5 353.3 263"/><polygon class="cls-5" points="369 230.5 369 254 358.8 259.9 358.8 236.4 369 230.5"/><polygon class="cls-2" points="369 254 366.3 252.5 366.3 232 369 230.5 369 254"/><polygon class="cls-3" points="369 254 358.8 259.9 358.8 256.9 366.3 252.5 369 254"/><polygon class="cls-5" points="353.3 268.9 353.3 292.4 343.1 298.3 343.1 274.8 353.3 268.9"/><polygon class="cls-2" points="353.3 292.4 350.6 290.9 350.6 270.4 353.3 268.9 353.3 292.4"/><polygon class="cls-3" points="353.3 292.4 343.1 298.3 343.1 295.4 350.6 290.9 353.3 292.4"/><polygon class="cls-5" points="369 259.9 369 283.4 358.8 289.3 358.8 265.8 369 259.9"/><polygon class="cls-2" points="369 283.4 366.3 281.9 366.3 261.4 369 259.9 369 283.4"/><polygon class="cls-3" points="369 283.4 358.8 289.3 358.8 286.4 366.3 281.9 369 283.4"/><polygon class="cls-5" points="384.7 221.1 384.7 244.6 374.5 250.4 374.5 226.9 384.7 221.1"/><polygon class="cls-2" points="384.7 244.6 382.1 243 382.1 222.6 384.7 221.1 384.7 244.6"/><polygon class="cls-3" points="384.7 244.6 374.5 250.4 374.5 247.5 382.1 243 384.7 244.6"/><polygon class="cls-5" points="384.7 250.5 384.7 274 374.5 279.9 374.5 256.3 384.7 250.5"/><polygon class="cls-2" points="384.7 274 382.1 272.5 382.1 252 384.7 250.5 384.7 274"/><polygon class="cls-3" points="384.7 274 374.5 279.9 374.5 276.9 382.1 272.5 384.7 274"/><polygon class="cls-5" points="363.9 136.5 363.9 160 353.7 165.9 353.7 142.4 363.9 136.5"/><polygon class="cls-2" points="363.9 160 361.2 158.5 361.2 138.1 363.9 136.5 363.9 160"/><polygon class="cls-3" points="363.9 160 353.7 165.9 353.7 163 361.2 158.5 363.9 160"/><polygon class="cls-5" points="363.9 165.9 363.9 189.4 353.7 195.3 353.7 171.8 363.9 165.9"/><polygon class="cls-2" points="363.9 189.4 361.2 187.9 361.2 167.5 363.9 165.9 363.9 189.4"/><polygon class="cls-3" points="363.9 189.4 353.7 195.3 353.7 192.4 361.2 187.9 363.9 189.4"/><polygon class="cls-5" points="277 184.7 277 208.3 266.8 214.1 266.8 190.6 277 184.7"/><polygon class="cls-2" points="277 208.3 274.3 206.7 274.3 186.3 277 184.7 277 208.3"/><polygon class="cls-3" points="277 208.3 266.8 214.1 266.8 211.2 274.3 206.7 277 208.3"/><polygon class="cls-5" points="277 214.2 277 237.7 266.8 243.6 266.8 220 277 214.2"/><polygon class="cls-2" points="277 237.7 274.3 236.2 274.3 215.7 277 214.2 277 237.7"/><polygon class="cls-3" points="277 237.7 266.8 243.6 266.8 240.6 274.3 236.2 277 237.7"/><path class="cls-5" d="M296.7,223.5a93.9,93.9,0,0,1-17.6.1l-30.2-17.5c-1-2.1-1.2-6.6-.2-10.3l121.4-70-35.7-20.6L212.2,175.8c-6.5,3.7-10.7,8-12.3,12.8s-2.4,17.1.3,23.1,7,10,13,13.5l32.9,19c5.7,3.3,14.8,6.2,23.2,7.3,10.4,1.7,32.7,1,40.2.2a55.4,55.4,0,0,0,21.9-7.1L453.7,174l-35.6-20.5Z"/><polygon class="cls-12" points="299.4 134.6 279 146.3 299.4 158.1 319.7 146.4 299.4 134.6"/><g class="cls-15"><polygon class="cls-2" points="289.2 150.2 309.6 162 309.5 166.7 289.2 154.9 289.2 150.2"/><polygon class="cls-5" points="289.2 150.2 292.7 148.2 313 160 309.6 162 289.2 150.2"/><polygon class="cls-3" points="309.5 166.7 313 164.6 313 160 309.6 162 309.5 166.7"/><polygon class="cls-2" points="285.7 157.1 306.1 168.9 306.1 173.6 285.7 161.8 285.7 157.1"/><polygon class="cls-5" points="285.7 157.1 289.2 155.1 309.6 166.9 306.1 168.9 285.7 157.1"/><polygon class="cls-3" points="306.1 173.6 309.6 171.5 309.6 166.9 306.1 168.9 306.1 173.6"/><polygon class="cls-2" points="295.9 136.6 316.3 148.4 316.3 153.1 295.9 141.3 295.9 136.6"/><polygon class="cls-5" points="295.9 136.6 299.4 134.6 319.7 146.4 316.3 148.4 295.9 136.6"/><polygon class="cls-3" points="316.3 153.1 319.7 150.9 319.7 146.4 316.3 148.4 316.3 153.1"/><polygon class="cls-2" points="292.5 143.5 312.9 155.3 312.9 160 292.5 148.2 292.5 143.5"/><polygon class="cls-5" points="292.5 143.5 296 141.5 316.3 153.2 312.9 155.3 292.5 143.5"/><polygon class="cls-3" points="312.9 160 316.3 157.8 316.3 153.2 312.9 155.3 312.9 160"/></g><polygon class="cls-1" points="299.4 134.6 279 146.3 299.4 158.1 319.7 146.4 299.4 134.6"/><polygon class="cls-6" points="226.6 137.9 226.6 156.7 246.9 168.5 236.8 153.2 246.9 149.7 226.6 137.9"/><line class="cls-1" x1="226.6" y1="185" x2="226.6" y2="137.9"/><polygon class="cls-6" points="310.3 187.2 310.3 206 330.7 217.7 320.5 202.4 330.7 198.9 310.3 187.2"/><line class="cls-1" x1="310.3" y1="234.2" x2="310.3" y2="187.1"/><polygon class="cls-2" points="336.4 206.2 356.8 217.9 356.8 222.6 336.4 210.9 336.4 206.2"/><polygon class="cls-5" points="336.4 206.2 339.9 204.1 360.3 215.9 356.8 217.9 336.4 206.2"/><polygon class="cls-3" points="356.8 222.6 360.3 220.5 360.3 215.9 356.8 217.9 356.8 222.6"/><polygon class="cls-2" points="360.3 192.4 380.6 204.1 380.6 208.9 360.3 197.1 360.3 192.4"/><polygon class="cls-5" points="360.3 192.4 363.8 190.4 384.1 202.1 380.6 204.1 360.3 192.4"/><polygon class="cls-3" points="380.6 208.9 384.1 206.7 384.1 202.1 380.6 204.1 380.6 208.9"/><polygon class="cls-2" points="384.1 178.6 404.5 190.4 404.4 195.1 384.1 183.3 384.1 178.6"/><polygon class="cls-5" points="384.1 178.6 387.6 176.6 407.9 188.4 404.5 190.4 384.1 178.6"/><polygon class="cls-3" points="404.4 195.1 407.9 193 407.9 188.4 404.5 190.4 404.4 195.1"/><ellipse class="cls-6" cx="220.2" cy="193" rx="5.4" ry="3.1"/><line class="cls-1" x1="220.2" y1="199" x2="220.2" y2="196.3"/><ellipse class="cls-6" cx="291.2" cy="234.7" rx="5.4" ry="3.1"/><line class="cls-1" x1="291.2" y1="240.7" x2="291.2" y2="238.1"/><ellipse class="cls-6" cx="226.8" cy="211.7" rx="5.4" ry="3.1"/><line class="cls-1" x1="226.8" y1="217.7" x2="226.8" y2="215"/><ellipse class="cls-6" cx="265" cy="233.1" rx="5.4" ry="3.1"/><line class="cls-1" x1="265" y1="239.1" x2="265" y2="236.5"/><ellipse class="cls-6" cx="243.9" cy="223.9" rx="5.4" ry="3.1"/><line class="cls-1" x1="243.9" y1="229.8" x2="243.9" y2="227.2"/><line class="cls-1" x1="335.1" y1="312.8" x2="335.1" y2="242.9"/><path class="cls-3" d="M310.1,260.5c-7.4.7-29.7,1.5-40.2-.2v23.5c10.5,1.8,32.8,1,40.2.2Z"/><path class="cls-5" d="M310.1,281.3c-7.4.7-29.7,1.5-40.2-.2v2.7c10.5,1.8,32.8,1,40.2.2Z"/><path class="cls-3" d="M310.1,291.7c-7.4.8-29.7,1.6-40.2-.2v23.6c10.5,1.7,32.8.9,40.2.2Z"/><path class="cls-5" d="M310.1,312.5c-7.4.8-29.7,1.6-40.2-.2v2.8c10.5,1.7,32.8.9,40.2.2Z"/><polygon class="cls-5" points="334.4 101.7 314.1 113.4 334.4 125.2 354.8 113.4 334.4 101.7"/><polygon class="cls-2" points="314.1 113.4 314.1 125.2 334.4 136.9 334.4 125.2 314.1 113.4"/><polygon class="cls-6" points="354.8 113.4 334.4 125.2 334.4 136.9 354.8 125.2 354.8 113.4"/><polygon class="cls-5" points="418.2 149.6 397.8 161.4 418.2 173.2 438.5 161.4 418.2 149.6"/><polygon class="cls-2" points="397.8 161.4 397.8 173.2 418.2 184.9 418.2 173.2 397.8 161.4"/><polygon class="cls-6" points="438.5 161.4 418.2 173.2 418.2 184.9 438.5 173.2 438.5 161.4"/><polygon class="cls-6" points="334.4 65.2 334.4 84 354.8 95.8 344.6 80.5 354.8 77 334.4 65.2"/><line class="cls-1" x1="334.4" y1="112.2" x2="334.4" y2="65.2"/><polygon class="cls-6" points="418.2 114.4 418.2 133.2 438.6 145 428.4 129.7 438.6 126.2 418.2 114.4"/><line class="cls-1" x1="418.2" y1="161.5" x2="418.2" y2="114.4"/><path class="cls-5" d="M417.6,267l40.7,23.5s1.7,2.7-.2,6.9L440,307.9s-3,1.8-11.8.2L417.6,302Z"/><polygon class="cls-6" points="417.6 267 417.6 302 387.2 284.5 417.6 267"/><path class="cls-5" d="M481.8,229.9l40.6,23.5s1.9,4.2-.4,7.1l-18.4,10.6s-6.4,1.6-11.4.1l-10.4-6Z"/><polygon class="cls-6" points="481.8 229.9 481.8 265.2 451.2 247.6 481.8 229.9"/><path class="cls-2" d="M508.1,370.5c-.5,5.8-3,11.6-13.8,17.8l-19.7,11.3a59.3,59.3,0,0,1-23,7.4h-.1a209.3,209.3,0,0,1-29.7.2c-9.8-1-20.3-4.2-27.6-8.5l-77-44.4V283.7l77,44.5c7.3,4.2,17.8,7.4,27.6,8.4a209.3,209.3,0,0,0,29.7-.2h.1a59.8,59.8,0,0,0,23-7.3l19.7-11.4c10.8-6.2,13.3-12,13.8-17.8Z"/><path class="cls-6" d="M571.5,337.7c-1.9,6.1-8.3,10.8-13.3,13.7l-19.1,11c-10.1,5.9-19.7,7.7-31,8.1-.5,5.8-.5-64.8,0-70.6,11.3-.4,20.9-2.2,31-8l19.1-11.1c5-2.9,11.4-7.6,13.3-13.6a41.2,41.2,0,0,0,1-10.9Z"/><path class="cls-2" d="M514,326.6c-.6,5.8-8.9,11.6-19.7,17.8l-19.7,11.3a59.3,59.3,0,0,1-23,7.4h-.1a209.3,209.3,0,0,1-29.7.2c-9.8-1-20.3-4.2-27.6-8.5L307,304.9V296l87.2,49.4c7.3,4.2,17.8,7.5,27.6,8.5a209.3,209.3,0,0,0,29.7-.2h.1a59.9,59.9,0,0,0,23-7.4L494.3,335c10.8-6.2,19.8-11.5,20.3-17.2Z"/><path class="cls-5" d="M317.2,295.9l77,44.2c7.3,4.2,17.8,7.4,27.6,8.4,7.1.7,23.5.5,29.7-.1h.1a61.6,61.6,0,0,0,23-7.4l18.6-11.4c2.3-1.2,14.7-10.4,14.9-11.8h6.5c-.5,5.7-9.5,11.5-20.3,17.7l-19.7,11.4a59.2,59.2,0,0,1-23,7.3h-.1c-6.2.6-22.6.8-29.7.1-9.8-1-20.3-4.2-27.6-8.4L307,296l5.5-2.9"/><polyline class="cls-5" points="312.5 293.1 317.2 291 317.2 295.9"/><path class="cls-2" d="M514,350.1c-.6,5.8-8.9,11.6-19.7,17.8l-19.7,11.4a59.2,59.2,0,0,1-23,7.3h-.1a209.3,209.3,0,0,1-29.7.2c-9.8-1-20.3-4.2-27.6-8.4l-87.2-50v-8.9L394.2,369c7.3,4.2,17.8,7.4,27.6,8.4a209.3,209.3,0,0,0,29.7-.2h.1a58.2,58.2,0,0,0,23-7.4l19.7-11.3c10.8-6.2,19.8-11.4,20.3-17.2Z"/><path class="cls-5" d="M317.2,319.4l77,44.2c7.3,4.2,17.8,7.5,27.6,8.5a225.3,225.3,0,0,0,29.7-.2h.1a59.9,59.9,0,0,0,23-7.4l18.6-11.3c2.3-1.3,14.7-10.5,14.9-11.9h6.5c-.5,5.8-9.5,11.5-20.3,17.7l-19.7,11.4a59.3,59.3,0,0,1-23,7.4h-.1c-6.2.6-22.6.8-29.7.1a72,72,0,0,1-27.6-8.4l-87.2-50,5.5-2.8"/><polyline class="cls-5" points="312.5 316.7 317.2 314.6 317.2 319.4"/><path class="cls-2" d="M514,373.7c-.6,5.7-8.9,11.5-19.7,17.7l-19.7,11.4a61.1,61.1,0,0,1-23,7.4h-.1c-6.2.6-22.6.8-29.7.1-9.8-1-20.3-4.2-27.6-8.4l-87.2-50V343l87.2,49.5c7.3,4.2,17.8,7.4,27.6,8.4,7.1.7,23.5.5,29.7-.1h.1a59.8,59.8,0,0,0,23-7.3L494.3,382c10.8-6.2,19.8-11.4,20.3-17.2Z"/><path class="cls-5" d="M317.2,342.9l77,44.2c7.3,4.3,17.8,7.5,27.6,8.5a209.3,209.3,0,0,0,29.7-.2h.1a59.9,59.9,0,0,0,23-7.4l18.6-11.3c2.3-1.2,14.7-10.5,14.9-11.9h6.5c-.5,5.8-9.5,11.6-20.3,17.8l-19.7,11.3a59.3,59.3,0,0,1-23,7.4h-.1a209.3,209.3,0,0,1-29.7.2c-9.8-1-20.3-4.3-27.6-8.5L307,343l5.5-2.8"/><polyline class="cls-5" points="312.5 340.2 317.2 338.1 317.2 342.9"/><polygon class="cls-6" points="488.7 240.3 488.7 263.8 498.9 269.7 498.9 246.1 488.7 240.3"/><polygon class="cls-5" points="488.7 263.8 491.4 262.3 491.4 241.8 488.7 240.3 488.7 263.8"/><polygon class="cls-5" points="488.7 263.8 498.9 269.7 498.9 266.7 491.4 262.3 488.7 263.8"/><polygon class="cls-6" points="505.7 249.9 505.7 273.5 515.8 279.3 515.8 255.8 505.7 249.9"/><polygon class="cls-5" points="505.7 273.5 508.3 271.9 508.3 251.5 505.7 249.9 505.7 273.5"/><polygon class="cls-5" points="505.7 273.5 515.8 279.3 515.8 276.4 508.3 271.9 505.7 273.5"/><polygon class="cls-6" points="424 277.1 424 300.6 434.2 306.5 434.2 283 424 277.1"/><polygon class="cls-5" points="424 300.6 426.7 299.1 426.7 278.6 424 277.1 424 300.6"/><polygon class="cls-5" points="424 300.6 434.2 306.5 434.2 303.6 426.7 299.1 424 300.6"/><polygon class="cls-6" points="441 286.8 441 310.3 451.2 316.2 451.2 292.7 441 286.8"/><polygon class="cls-5" points="441 310.3 443.6 308.8 443.6 288.3 441 286.8 441 310.3"/><polygon class="cls-5" points="441 310.3 451.2 316.2 451.2 313.2 443.6 308.8 441 310.3"/><polygon class="cls-16" points="409.9 277.4 409.9 300.9 392.4 311 392.4 287.5 409.9 277.4"/><g class="cls-17"><line class="cls-8" x1="296.6" y1="258.4" x2="296.6" y2="376"/><line class="cls-8" x1="300.1" y1="258.4" x2="300.1" y2="376"/><line class="cls-8" x1="303.6" y1="258.4" x2="303.6" y2="376"/><line class="cls-8" x1="307.2" y1="258.4" x2="307.2" y2="376"/><line class="cls-8" x1="310.7" y1="258.4" x2="310.7" y2="376"/><line class="cls-8" x1="314.2" y1="258.4" x2="314.2" y2="376"/><line class="cls-8" x1="317.7" y1="258.4" x2="317.7" y2="376"/><line class="cls-8" x1="321.3" y1="258.4" x2="321.3" y2="376"/><line class="cls-8" x1="324.8" y1="258.4" x2="324.8" y2="376"/><line class="cls-8" x1="328.3" y1="258.4" x2="328.3" y2="376"/><line class="cls-8" x1="331.9" y1="258.4" x2="331.9" y2="376"/><line class="cls-8" x1="335.4" y1="258.4" x2="335.4" y2="376"/><line class="cls-8" x1="338.9" y1="258.4" x2="338.9" y2="376"/><line class="cls-8" x1="342.4" y1="258.4" x2="342.4" y2="376"/><line class="cls-8" x1="346" y1="258.4" x2="346" y2="376"/><line class="cls-8" x1="349.5" y1="258.4" x2="349.5" y2="376"/><line class="cls-8" x1="353" y1="258.4" x2="353" y2="376"/><line class="cls-8" x1="356.6" y1="258.4" x2="356.6" y2="376"/><line class="cls-8" x1="360.1" y1="258.4" x2="360.1" y2="376"/><line class="cls-8" x1="363.6" y1="258.4" x2="363.6" y2="376"/><line class="cls-8" x1="367.1" y1="258.4" x2="367.1" y2="376"/><line class="cls-8" x1="370.7" y1="258.4" x2="370.7" y2="376"/><line class="cls-8" x1="374.2" y1="258.4" x2="374.2" y2="376"/><line class="cls-8" x1="377.7" y1="258.4" x2="377.7" y2="376"/><line class="cls-8" x1="381.3" y1="258.4" x2="381.3" y2="376"/><line class="cls-8" x1="384.8" y1="258.4" x2="384.8" y2="376"/><line class="cls-8" x1="388.3" y1="258.4" x2="388.3" y2="376"/><line class="cls-8" x1="391.8" y1="258.4" x2="391.8" y2="376"/><line class="cls-8" x1="395.4" y1="258.4" x2="395.4" y2="376"/><line class="cls-8" x1="398.9" y1="258.4" x2="398.9" y2="376"/><line class="cls-8" x1="402.4" y1="258.4" x2="402.4" y2="376"/><line class="cls-8" x1="406" y1="258.4" x2="406" y2="376"/><line class="cls-8" x1="409.5" y1="258.4" x2="409.5" y2="376"/><line class="cls-8" x1="413" y1="258.4" x2="413" y2="376"/><line class="cls-8" x1="416.5" y1="258.4" x2="416.5" y2="376"/><line class="cls-8" x1="420.1" y1="258.4" x2="420.1" y2="376"/><line class="cls-8" x1="423.6" y1="258.4" x2="423.6" y2="376"/><line class="cls-8" x1="427.1" y1="258.4" x2="427.1" y2="376"/><line class="cls-8" x1="430.7" y1="258.4" x2="430.7" y2="376"/><line class="cls-8" x1="434.2" y1="258.4" x2="434.2" y2="376"/><line class="cls-8" x1="437.7" y1="258.4" x2="437.7" y2="376"/></g><polygon class="cls-1" points="409.9 277.4 409.9 300.9 392.4 311 392.4 287.5 409.9 277.4"/><path class="cls-5" d="M571.8,250c-1.8-6-7.1-11.9-14.4-16.1l-76.9-44.4L317.2,283.7l77,44.5c7.3,4.2,17.8,7.4,27.6,8.4a209.3,209.3,0,0,0,29.7-.2h.1a59.8,59.8,0,0,0,23-7.3l19.7-11.4c10.8-6.2,13.3-12,13.8-17.8,11.3-.4,20.9-2.2,31-8l19.1-11.1c5-2.9,11.4-7.6,13.3-13.6C572.7,263.6,573,254.1,571.8,250Zm-67.9,21h-.3a39.5,39.5,0,0,1-11.4.1l-41-23.6,30.6-17.7,40.6,23.5c.6,1,.8,4.3-.4,7.1Zm-86.3-4,40.7,23.5c.6,1,.9,4.2-.2,6.9L440,307.9l-.4.2c-3.8.6-9.6.5-11.4,0l-41-23.6Z"/><path class="cls-2" d="M534.3,230.3c0-2.1,1.4-4.2,4.1-5.8,5.6-3.2,14.5-3.2,20,0,2.8,1.6,4.1,3.7,4.1,5.8v19.9m0,0c0,2.1-1.3,4.2-4.1,5.8-5.5,3.2-14.4,3.2-20,0-2.7-1.6-4.1-3.7-4.1-5.8V230.3"/><ellipse class="cls-5" cx="548.4" cy="230.3" rx="14.1" ry="8.2"/><polygon class="cls-5" points="478 180.6 460.8 190.5 478 210.3 495.1 200.4 478 180.6"/><polygon class="cls-2" points="460.8 190.5 460.8 211.3 478 221.2 478 210.3 460.8 190.5"/><polygon class="cls-11" points="495.1 200.4 478 210.3 478 221.2 495.1 211.3 495.1 200.4"/><polygon class="cls-1" points="495.1 200.4 478 210.3 478 221.2 495.1 211.3 495.1 200.4"/><polygon class="cls-5" points="455.9 193.9 438.8 203.8 455.9 223.5 473 213.7 455.9 193.9"/><polygon class="cls-2" points="438.8 203.8 438.8 224.5 455.9 234.4 455.9 223.5 438.8 203.8"/><polygon class="cls-11" points="473 213.7 455.9 223.5 455.9 234.4 473 224.5 473 213.7"/><polygon class="cls-1" points="473 213.7 455.9 223.5 455.9 234.4 473 224.5 473 213.7"/><polygon class="cls-5" points="358 251.7 340.8 261.6 358 281.4 375.1 271.5 358 251.7"/><polygon class="cls-2" points="340.8 261.6 340.8 282.3 358 292.2 358 281.4 340.8 261.6"/><polygon class="cls-11" points="375.1 271.5 358 281.4 358 292.2 375.1 282.3 375.1 271.5"/><polygon class="cls-1" points="375.1 271.5 358 281.4 358 292.2 375.1 282.3 375.1 271.5"/><polygon class="cls-2" points="561.7 279 541.3 290.8 541.3 319 551.5 303.7 561.7 307.3 561.7 279"/><polygon class="cls-2" points="389.3 247.6 409.7 259.3 409.7 264 389.3 252.3 389.3 247.6"/><polygon class="cls-5" points="389.3 247.6 392.8 245.6 413.1 257.3 409.7 259.3 389.3 247.6"/><polygon class="cls-3" points="409.7 264 413.1 261.9 413.1 257.3 409.7 259.3 409.7 264"/><polygon class="cls-2" points="401.2 240.7 421.6 252.5 421.6 257.2 401.2 245.4 401.2 240.7"/><polygon class="cls-5" points="401.2 240.7 404.7 238.7 425 250.4 421.6 252.5 401.2 240.7"/><polygon class="cls-3" points="421.6 257.2 425 255 425 250.4 421.6 252.5 421.6 257.2"/><polygon class="cls-2" points="413.1 233.8 433.5 245.6 433.5 250.3 413.1 238.5 413.1 233.8"/><polygon class="cls-5" points="413.1 233.8 416.6 231.8 436.9 243.6 433.5 245.6 413.1 233.8"/><polygon class="cls-3" points="433.5 250.3 436.9 248.1 436.9 243.6 433.5 245.6 433.5 250.3"/><polygon class="cls-2" points="425 226.9 445.4 238.7 445.4 243.4 425 231.6 425 226.9"/><polygon class="cls-5" points="425 226.9 428.5 224.9 448.8 236.7 445.4 238.7 425 226.9"/><polygon class="cls-3" points="445.4 243.4 448.8 241.3 448.8 236.7 445.4 238.7 445.4 243.4"/><path class="cls-2" d="M381.1,297.1a3.1,3.1,0,0,1,1.8-2.5,9.5,9.5,0,0,1,8.7,0,3.1,3.1,0,0,1,1.8,2.5v8.7m0,0a3.1,3.1,0,0,1-1.8,2.6,10.2,10.2,0,0,1-8.7,0,3.1,3.1,0,0,1-1.8-2.6v-8.7"/><ellipse class="cls-5" cx="387.2" cy="297.1" rx="6.2" ry="3.6"/><path class="cls-2" d="M405.2,311.8a3.1,3.1,0,0,1,1.8-2.5,9.7,9.7,0,0,1,8.8,0,3.1,3.1,0,0,1,1.8,2.5v8.7m0,0a3.1,3.1,0,0,1-1.8,2.6,10.4,10.4,0,0,1-8.8,0,3.1,3.1,0,0,1-1.8-2.6v-8.7"/><ellipse class="cls-5" cx="411.4" cy="311.8" rx="6.2" ry="3.6"/><path class="cls-2" d="M437.5,314.1a3.1,3.1,0,0,1,1.8-2.6,9.5,9.5,0,0,1,8.7,0,3.1,3.1,0,0,1,1.8,2.6v8.7m0,0a3.1,3.1,0,0,1-1.8,2.5,9.5,9.5,0,0,1-8.7,0,3.1,3.1,0,0,1-1.8-2.5v-8.7"/><ellipse class="cls-5" cx="443.6" cy="314.1" rx="6.2" ry="3.6"/><path class="cls-2" d="M464.5,301.5a3.1,3.1,0,0,1,1.8-2.5,9.5,9.5,0,0,1,8.7,0,3.1,3.1,0,0,1,1.8,2.5v8.7m0,0a3.1,3.1,0,0,1-1.8,2.5,9.5,9.5,0,0,1-8.7,0,3.1,3.1,0,0,1-1.8-2.5v-8.7"/><ellipse class="cls-5" cx="470.6" cy="301.5" rx="6.2" ry="3.6"/><path class="cls-2" d="M513.1,224.3a3.1,3.1,0,0,1,1.8-2.6,9.5,9.5,0,0,1,8.7,0,3.1,3.1,0,0,1,1.8,2.6V233m0,0a3.1,3.1,0,0,1-1.8,2.5,9.5,9.5,0,0,1-8.7,0,3.1,3.1,0,0,1-1.8-2.5v-8.7"/><ellipse class="cls-5" cx="519.2" cy="224.3" rx="6.2" ry="3.6"/><polyline class="cls-6" points="508.7 450.7 496.6 457.8 496.6 387.2 560.5 350.3 560.5 405.7 544.5 414.9 544.5 430"/><polyline class="cls-2" points="508.7 450.8 508.8 403.8 549.5 380.3 549.5 427.3"/><polygon class="cls-5" points="549.5 427.3 508.8 403.8 529.1 392 549.5 380.3 549.5 427.3"/><polygon class="cls-2" points="460.9 366.6 460.9 437.2 496.6 457.8 496.6 387.2 460.9 366.6"/><polygon class="cls-2" points="544.5 414.9 544.5 485.5 580.2 506 580.2 435.5 544.5 414.9"/><polygon class="cls-2" points="560.5 350.3 608.4 378 560.5 405.7 560.5 350.3"/><polygon class="cls-6" points="737.6 415.2 743.4 411.8 743.4 341.2 580.2 435.5 580.2 506 696.8 438.7 737.6 415.2"/><polygon class="cls-11" points="659.8 292.9 659.8 348.3 642.8 358.1 594.9 330.5 659.8 292.9"/><polygon class="cls-1" points="659.8 292.9 659.8 348.3 642.8 358.1 594.9 330.5 659.8 292.9"/><polygon class="cls-2" points="548.6 487.4 569 499.2 569 503.9 548.6 492.1 548.6 487.4"/><polygon class="cls-5" points="548.6 487.4 552.1 485.4 572.4 497.1 569 499.2 548.6 487.4"/><polygon class="cls-3" points="569 503.9 572.4 501.7 572.4 497.1 569 499.2 569 503.9"/><polygon class="cls-5" points="552.1 428.9 552.1 485.4 572.5 497.1 572.5 440.7 552.1 428.9"/><polygon class="cls-6" points="567.7 364.3 567.7 387.8 608.4 411.4 608.4 387.8 567.7 364.3"/><polygon class="cls-5" points="567.7 387.8 570.3 386.3 570.3 365.8 567.7 364.3 567.7 387.8"/><polygon class="cls-5" points="567.7 387.8 608.4 411.4 608.4 408.3 570.3 386.3 567.7 387.8"/><polygon class="cls-6" points="468.5 394.6 468.5 418.1 488.9 429.8 488.9 406.3 468.5 394.6"/><polygon class="cls-5" points="468.5 418.1 488.9 406.3 468.5 394.6 468.5 418.1"/><polygon class="cls-6" points="552.1 485.4 572.5 473.6 572.5 497.1 552.1 485.4"/><polygon class="cls-5" points="632.7 323.1 632.7 346.6 622.5 352.5 622.5 329 632.7 323.1"/><polygon class="cls-2" points="632.7 346.6 630.1 345.1 630.1 324.6 632.7 323.1 632.7 346.6"/><polygon class="cls-3" points="632.7 346.6 622.5 352.5 622.5 349.5 630.1 345.1 632.7 346.6"/><polygon class="cls-5" points="612.4 334.9 612.4 358.4 602.2 364.3 602.2 340.7 612.4 334.9"/><polygon class="cls-2" points="612.4 358.4 609.7 356.8 609.7 336.4 612.4 334.9 612.4 358.4"/><polygon class="cls-3" points="612.4 358.4 602.2 364.3 602.2 361.3 609.7 356.8 612.4 358.4"/><polygon class="cls-5" points="653.1 311.3 653.1 334.9 642.9 340.7 642.9 317.2 653.1 311.3"/><polygon class="cls-2" points="653.1 334.9 650.5 333.3 650.5 312.9 653.1 311.3 653.1 334.9"/><polygon class="cls-3" points="653.1 334.9 642.9 340.7 642.9 337.8 650.5 333.3 653.1 334.9"/><polygon class="cls-5" points="642.8 358.1 594.9 330.5 659.8 292.9 624.2 272.4 460.9 366.6 496.6 387.2 560.5 350.3 608.4 378 544.5 414.9 580.2 435.5 743.4 341.2 707.8 320.6 642.8 358.1"/><polygon class="cls-2" points="476.1 361.5 496.5 373.2 496.5 377.9 476.1 366.2 476.1 361.5"/><polygon class="cls-5" points="476.1 361.5 479.6 359.4 499.9 371.2 496.5 373.2 476.1 361.5"/><polygon class="cls-3" points="496.5 377.9 499.9 375.8 499.9 371.2 496.5 373.2 496.5 377.9"/><polygon class="cls-2" points="488 354.6 508.4 366.3 508.4 371 488 359.3 488 354.6"/><polygon class="cls-5" points="488 354.6 491.5 352.5 511.8 364.3 508.4 366.3 488 354.6"/><polygon class="cls-3" points="508.4 371 511.8 368.9 511.8 364.3 508.4 366.3 508.4 371"/><polygon class="cls-2" points="499.9 347.7 520.3 359.5 520.3 364.2 499.9 352.4 499.9 347.7"/><polygon class="cls-5" points="499.9 347.7 503.4 345.7 523.7 357.4 520.3 359.5 499.9 347.7"/><polygon class="cls-3" points="520.3 364.2 523.7 362 523.7 357.4 520.3 359.5 520.3 364.2"/><polygon class="cls-2" points="511.8 340.8 532.2 352.6 532.2 357.3 511.8 345.5 511.8 340.8"/><polygon class="cls-5" points="511.8 340.8 515.3 338.8 535.7 350.5 532.2 352.6 511.8 340.8"/><polygon class="cls-3" points="532.2 357.3 535.7 355.1 535.7 350.5 532.2 352.6 532.2 357.3"/><polygon class="cls-2" points="523.7 333.9 544.1 345.7 544.1 350.4 523.7 338.6 523.7 333.9"/><polygon class="cls-5" points="523.7 333.9 527.3 331.9 547.6 343.7 544.1 345.7 523.7 333.9"/><polygon class="cls-3" points="544.1 350.4 547.6 348.3 547.6 343.7 544.1 345.7 544.1 350.4"/><polygon class="cls-2" points="654.5 356.8 674.8 368.6 674.8 373.3 654.5 361.5 654.5 356.8"/><polygon class="cls-5" points="654.5 356.8 658 354.8 678.3 366.6 674.8 368.6 654.5 356.8"/><polygon class="cls-3" points="674.8 373.3 678.3 371.2 678.3 366.6 674.8 368.6 674.8 373.3"/><polygon class="cls-2" points="666.4 349.9 686.7 361.7 686.7 366.4 666.4 354.6 666.4 349.9"/><polygon class="cls-5" points="666.4 349.9 669.9 347.9 690.2 359.7 686.7 361.7 666.4 349.9"/><polygon class="cls-3" points="686.7 366.4 690.2 364.3 690.2 359.7 686.7 361.7 686.7 366.4"/><polygon class="cls-2" points="678.3 343.1 698.6 354.8 698.6 359.5 678.3 347.8 678.3 343.1"/><polygon class="cls-5" points="678.3 343.1 681.8 341 702.1 352.8 698.6 354.8 678.3 343.1"/><polygon class="cls-3" points="698.6 359.5 702.1 357.4 702.1 352.8 698.6 354.8 698.6 359.5"/><polygon class="cls-2" points="690.2 336.2 710.6 347.9 710.5 352.6 690.2 340.9 690.2 336.2"/><polygon class="cls-5" points="690.2 336.2 693.7 334.2 714 345.9 710.6 347.9 690.2 336.2"/><polygon class="cls-3" points="710.5 352.6 714 350.5 714 345.9 710.6 347.9 710.5 352.6"/><polygon class="cls-2" points="702.1 329.3 722.5 341.1 722.5 345.8 702.1 334 702.1 329.3"/><polygon class="cls-5" points="702.1 329.3 705.6 327.3 725.9 339 722.5 341.1 702.1 329.3"/><polygon class="cls-3" points="722.5 345.8 725.9 343.6 725.9 339 722.5 341.1 722.5 345.8"/><polygon class="cls-2" points="661.8 388.4 641.4 400.1 641.4 446.6 651.6 430.7 661.8 435.4 661.8 388.4"/><polygon class="cls-5" points="580.2 385.4 563 395.3 580.2 415.1 597.3 405.2 580.2 385.4"/><polygon class="cls-2" points="563 395.3 563 416 580.2 425.9 580.2 415.1 563 395.3"/><polygon class="cls-11" points="597.3 405.2 580.2 415.1 580.2 425.9 597.3 416 597.3 405.2"/><polygon class="cls-1" points="597.3 405.2 580.2 415.1 580.2 425.9 597.3 416 597.3 405.2"/><polygon class="cls-5" points="623.9 258.1 603.5 269.8 623.9 281.6 644.3 269.8 623.9 258.1"/><polygon class="cls-2" points="603.5 269.8 583.1 305.1 603.5 316.9 623.9 281.6 603.5 269.8"/><polygon class="cls-11" points="644.3 269.8 623.9 281.6 603.5 316.9 644.3 293.4 644.3 269.8"/><polygon class="cls-1" points="644.3 269.8 623.9 281.6 603.5 316.9 644.3 293.4 644.3 269.8"/><polyline class="cls-5" points="743.4 353.6 679.9 390.2 690.1 396.1 761.3 355 751.1 349.1"/><polygon class="cls-2" points="679.9 390.2 679.9 398.5 690.1 404.3 690.1 396.1 679.9 390.2"/><polygon class="cls-11" points="761.3 355 690.1 396.1 690.1 404.3 761.3 363.2 761.3 355"/><polygon class="cls-1" points="761.3 355 690.1 396.1 690.1 404.3 761.3 363.2 761.3 355"/><polyline class="cls-5" points="751.1 349.1 743.4 344.6 743.4 353.7"/><polyline class="cls-5" points="743.4 382.7 679.9 419.3 690.1 425.2 761.3 384.1 751.1 378.2"/><polygon class="cls-2" points="679.9 419.3 679.9 427.6 690.1 433.4 690.1 425.2 679.9 419.3"/><polygon class="cls-11" points="761.3 384.1 690.1 425.2 690.1 433.4 761.3 392.3 761.3 384.1"/><polygon class="cls-1" points="761.3 384.1 690.1 425.2 690.1 433.4 761.3 392.3 761.3 384.1"/><polyline class="cls-5" points="751.1 378.2 743.4 373.7 743.4 382.7"/><polygon class="cls-2" points="623.9 410.3 603.5 422.1 603.5 468.5 613.7 452.7 623.9 457.4 623.9 410.3"/><polygon class="cls-2" points="589.5 441 589.5 511.5 627.5 533.5 627.5 462.9 589.5 441"/><polygon class="cls-11" points="671.8 450.5 671.8 521.1 627.5 533.5 627.5 462.9 671.8 450.5"/><polygon class="cls-1" points="671.8 450.5 671.8 521.1 627.5 533.5 627.5 462.9 671.8 450.5"/><polygon class="cls-2" points="671.8 450.5 724.5 480.9 703 506.5 703 539.1 671.8 521.1 671.8 450.5"/><polygon class="cls-11" points="741 528.4 741 599 847.5 471.9 847.5 401.4 741 528.4"/><polygon class="cls-1" points="741 528.4 741 599 847.5 471.9 847.5 401.4 741 528.4"/><polygon class="cls-6" points="776.3 420.7 717.6 437.3 747.4 454.5 776.3 420.7"/><polygon class="cls-5" points="840.7 425 840.7 460.3 830.5 472.3 830.5 437.9 840.7 425"/><polygon class="cls-2" points="840.7 460.6 838 459 838 428.3 840.7 425.3 840.7 460.6"/><polygon class="cls-3" points="840.7 460.3 830.5 472.3 830.5 467.4 838 458.7 840.7 460.3"/><polygon class="cls-5" points="825.4 443.2 825.4 478.5 815.2 490.5 815.2 456.2 825.4 443.2"/><polygon class="cls-2" points="825.4 478.8 822.7 477.3 822.7 446.6 825.4 443.5 825.4 478.8"/><polygon class="cls-3" points="825.4 478.5 815.2 490.5 815.2 485.7 822.7 477 825.4 478.5"/><polygon class="cls-5" points="810 461.6 810 496.8 799.8 508.8 799.8 474.5 810 461.6"/><polygon class="cls-2" points="810 497.1 807.4 495.6 807.4 464.9 810 461.9 810 497.1"/><polygon class="cls-3" points="810 496.8 799.8 508.8 799.8 504 807.4 495.3 810 496.8"/><polygon class="cls-5" points="794.7 479.8 794.7 515.1 784.5 527.1 784.5 492.7 794.7 479.8"/><polygon class="cls-2" points="794.7 515.4 792.1 513.9 792.1 483.2 794.7 480.1 794.7 515.4"/><polygon class="cls-3" points="794.7 515.1 784.5 527.1 784.6 522.3 792.1 513.6 794.7 515.1"/><polygon class="cls-6" points="677.8 462.2 677.8 485.7 718.5 509.2 718.5 485.7 677.8 462.2"/><polygon class="cls-5" points="677.8 485.7 680.4 484.2 680.4 463.7 677.8 462.2 677.8 485.7"/><polygon class="cls-5" points="677.8 485.7 718.5 509.2 718.5 506.1 680.4 484.2 677.8 485.7"/><polygon class="cls-6" points="677.8 492.7 677.8 516.3 718.5 539.8 718.5 516.3 677.8 492.7"/><polygon class="cls-5" points="677.8 516.3 680.4 514.7 680.4 494.3 677.8 492.7 677.8 516.3"/><polygon class="cls-5" points="677.8 516.3 718.5 539.8 718.5 536.7 680.4 514.7 677.8 516.3"/><path class="cls-5" d="M809.9,379.7,589.5,441l38,21.9,44.3-12.4,52.7,30.4L703,506.5l38,21.9,106.5-127Zm-62.5,74.8-29.8-17.2,58.7-16.6Z"/><polygon class="cls-2" points="703 506.5 703 577.1 741 599 741 528.4 703 506.5"/><polygon class="cls-5" points="801.7 385.4 781.3 397.2 801.7 408.9 822 397.2 801.7 385.4"/><polygon class="cls-2" points="781.3 397.2 781.3 408.9 801.7 420.7 801.7 408.9 781.3 397.2"/><polygon class="cls-6" points="822 397.2 801.7 408.9 801.7 420.7 822 408.9 822 397.2"/><polygon class="cls-6" points="801.7 350.2 801.7 369 822.1 380.8 811.9 365.5 822.1 361.9 801.7 350.2"/><line class="cls-1" x1="801.7" y1="397.2" x2="801.7" y2="350.2"/><polygon class="cls-5" points="703 411.6 682.7 423.3 723.4 446.9 743.8 435.1 703 411.6"/><polygon class="cls-2" points="682.7 423.3 671 442.5 732.1 477.8 723.4 446.9 682.7 423.3"/><polygon class="cls-6" points="743.8 435.1 723.4 446.9 732.1 477.8 750.7 465.5 743.8 435.1"/><path class="cls-2" d="M733,408.5a3.1,3.1,0,0,1,1.8-2.5,9.5,9.5,0,0,1,8.7,0,3.1,3.1,0,0,1,1.8,2.5v8.7m0,0a3.1,3.1,0,0,1-1.8,2.5,9.5,9.5,0,0,1-8.7,0,3.1,3.1,0,0,1-1.8-2.5v-8.7"/><ellipse class="cls-5" cx="739.2" cy="408.5" rx="6.2" ry="3.6"/><path class="cls-2" d="M778.4,434.6a3.1,3.1,0,0,1,1.8-2.5,9.5,9.5,0,0,1,8.7,0,3.1,3.1,0,0,1,1.8,2.5v8.7m0,0a3.1,3.1,0,0,1-1.8,2.5,9.5,9.5,0,0,1-8.7,0,3.1,3.1,0,0,1-1.8-2.5v-8.7"/><ellipse class="cls-5" cx="784.5" cy="434.6" rx="6.2" ry="3.6"/><polygon class="cls-6" points="593.2 449 593.2 507.8 623.8 525.4 623.8 466.6 593.2 449"/><polygon class="cls-5" points="593.2 507.8 623.8 490.2 623.8 525.4 593.2 507.8"/><line class="cls-6" x1="608.5" y1="457.8" x2="608.5" y2="516.6"/><line class="cls-6" x1="593.2" y1="478.4" x2="623.8" y2="496"/><polygon class="cls-6" points="706.7 514.5 706.7 573.3 737.3 591 737.3 532.2 706.7 514.5"/><polygon class="cls-5" points="706.7 573.3 737.3 555.7 737.3 591 706.7 573.3"/><line class="cls-6" x1="722" y1="523.3" x2="722" y2="582.1"/><line class="cls-6" x1="706.7" y1="543.9" x2="737.3" y2="561.6"/><path class="cls-6" d="M890.9,565l15.4-8.9,1.3-.7a91.3,91.3,0,0,1,18.2.1l29.4,17c.6,2.4.1,8.2-.6,11.9l-.4,2.2,44,14.2,3-6.1c1.3-2.7,2.3-4.3,2.8-7,1-5.4,1.3-7.5,1.3-7.5v-72c.8,8.3-7.1,22-7.1,22l-44-14.1.4-2.3c.7-3.6,1.2-9.4.6-11.9l-29.4-17a99.5,99.5,0,0,0-18.2-.1l-1.3.7L828,530.7c-.9,1.5-.6,7,.9,10.2h.3l29.2,16.9c5,.8,14.9.1,20.2-.5l4.2-.5,8.1,8.1"/><polygon class="cls-2" points="954.2 516.1 954.2 586.6 998.2 600.8 998.2 530.2 954.2 516.1"/><line class="cls-1" x1="825.3" y1="578.5" x2="825.3" y2="649"/><line class="cls-1" x1="793" y1="559.8" x2="793" y2="630.4"/><ellipse class="cls-6" cx="908.2" cy="596.7" rx="49.9" ry="28.8"/><ellipse class="cls-2" cx="908.2" cy="594.2" rx="42" ry="24.3"/><ellipse class="cls-16" cx="908.2" cy="595.6" rx="37.5" ry="21.7"/><path class="cls-18" d="M926.5,520.2a6.9,6.9,0,0,0-6.6-4.2c-8.7-.1-8.7,11.8-8.7,21.4v60.5"/><path class="cls-18" d="M892.4,511.1c1.2-3.3,3.3-5.5,7.1-5.5,8.7-.1,8.7,14.1,8.7,23.7v69.6"/><path class="cls-18" d="M924,511.1c-1.2-3.3-3.3-5.5-7.1-5.5-8.7,0-8.7,14.1-8.7,23.8V599"/><path class="cls-18" d="M889.9,520.2a6.9,6.9,0,0,1,6.6-4.2c8.7-.1,8.7,11.8,8.7,21.4v60.5"/><path class="cls-18" d="M887.5,530s1-6.8,6-6.8c8.7-.1,8.7,21.3,8.7,30.9v42.8"/><path class="cls-18" d="M928.9,530s-1-6.8-6-6.8c-8.7-.1-8.7,21.3-8.7,30.9v42.8"/><path class="cls-1" d="M926.5,520.2a6.9,6.9,0,0,0-6.6-4.2c-8.7-.1-8.7,11.8-8.7,21.4v60.5"/><path class="cls-1" d="M892.4,511.1c1.2-3.3,3.3-5.5,7.1-5.5,8.7-.1,8.7,14.1,8.7,23.7v69.6"/><path class="cls-1" d="M924,511.1c-1.2-3.3-3.3-5.5-7.1-5.5-8.7,0-8.7,14.1-8.7,23.8V599"/><path class="cls-1" d="M889.9,520.2a6.9,6.9,0,0,1,6.6-4.2c8.7-.1,8.7,11.8,8.7,21.4v60.5"/><path class="cls-1" d="M887.5,530s1-6.8,6-6.8c8.7-.1,8.7,21.3,8.7,30.9v42.8"/><path class="cls-1" d="M928.9,530s-1-6.8-6-6.8c-8.7-.1-8.7,21.3-8.7,30.9v42.8"/><path class="cls-5" d="M907.6,484.8a99.5,99.5,0,0,1,18.2.1l29.4,17c.6,2.5.1,8.3-.6,11.9l-.4,2.3,44,14.1,3-6.1a33.3,33.3,0,0,0,2.8-6.9c3.6-15.7-.8-27.2-13.1-34.3l-32.3-18.7c-8.3-4.8-20-6.9-23.4-7.5-10.2-1.6-32.9-.9-40.3-.2a57.1,57.1,0,0,0-21.7,6.9l-81.5,47.1c-6.5,3.8-10.6,8-12.3,12.7s-2,17.4.6,23,7,10.1,13,13.6l32.3,18.7c12.5,7.2,33.1,9.8,59.5,7.5h.1a114.2,114.2,0,0,0,16.5-2.7l6.5-1.5-25.1-24.9-4.2.5c-5.3.6-15.2,1.3-20.2.5L829.2,541h-.3c-1.5-3.2-1.8-8.7-.9-10.2l78.3-45.2Z"/><path class="cls-2" d="M907.9,581.8l-6.5,1.5a114.2,114.2,0,0,1-16.5,2.7h-.1c-26.4,2.3-47-.3-59.5-7.5L793,559.8c-6-3.5-11-8.7-13-13.6a24.4,24.4,0,0,1-1.7-7.5v70.5a24.4,24.4,0,0,0,1.7,7.6c2,4.9,7,10.1,13,13.6L825.3,649c12.5,7.2,33.1,9.9,59.5,7.6h.1a130.1,130.1,0,0,0,16.5-2.7l6.5-1.5Z"/><polygon class="cls-5" points="817 479.8 875.4 446.2 895.8 456.5 838.3 492.1 817 516.7 795.7 504.4 817 479.8"/><polygon class="cls-6" points="838.3 492.1 895.8 456.5 911.9 464.4 911.9 475.4 817 530.2 817 516.7 838.3 492.1"/><polygon class="cls-9" points="795.7 504.4 817 516.7 817 530.2 795.7 517.9 795.7 504.4"/><polygon class="cls-1" points="795.7 504.4 817 516.7 817 530.2 795.7 517.9 795.7 504.4"/><polygon class="cls-5" points="786.6 620.1 780.3 623.7 828.4 651.5 834.8 647.9 786.6 620.1"/><polygon class="cls-2" points="780.3 623.7 780.3 628.4 828.4 656.2 828.4 651.5 780.3 623.7"/><polygon class="cls-3" points="834.8 647.9 828.4 651.5 828.4 656.2 834.7 652.6 834.8 647.9"/><path class="cls-5" d="M798.5,591.4c-5.6-3.2-10.2-.6-10.2,5.9V621l20.3,11.8V609C808.6,602.5,804.1,594.7,798.5,591.4Z"/><polygon class="cls-6" points="788.3 621 808.6 609 808.6 632.8 788.3 621"/><path class="cls-5" d="M822.3,605.3c-5.6-3.3-10.1-.7-10.1,5.8v23.8l20.3,11.7V622.8C832.5,616.3,827.9,608.5,822.3,605.3Z"/><polygon class="cls-6" points="812.2 634.9 832.5 622.8 832.5 646.6 812.2 634.9"/><polygon class="cls-5" points="780.2 628.5 773.9 632.2 822.1 660 828.4 656.3 780.2 628.5"/><polygon class="cls-2" points="773.9 632.2 773.9 636.9 822.1 664.7 822.1 660 773.9 632.2"/><polygon class="cls-3" points="828.4 656.3 822.1 660 822.1 664.7 828.3 661.1 828.4 656.3"/><path class="cls-2" d="M953.7,454.8c0-1.5,1-3.1,3.1-4.3a16.5,16.5,0,0,1,15,0c2.1,1.2,3.2,2.7,3.2,4.3V490m0,0c0,1.5-1.1,3.1-3.2,4.3a16.5,16.5,0,0,1-15,0c-2.1-1.2-3.1-2.8-3.1-4.3V454.8"/><ellipse class="cls-5" cx="964.3" cy="454.8" rx="10.6" ry="6.1"/><path class="cls-2" d="M969,486.7c0-1.6,1-3.2,3.1-4.4a16.7,16.7,0,0,1,15.1,0c2,1.2,3.1,2.8,3.1,4.4V510m0,0c0,1.6-1.1,3.2-3.1,4.4a16.7,16.7,0,0,1-15.1,0c-2.1-1.2-3.1-2.8-3.1-4.4V486.7"/><ellipse class="cls-5" cx="979.6" cy="486.7" rx="10.6" ry="6.1"/><line class="cls-6" x1="802" y1="586.5" x2="822.4" y2="598.3"/><g class="cls-19"><line class="cls-8" x1="1065.8" y1="504.1" x2="1065.8" y2="621.7"/><line class="cls-8" x1="1062.3" y1="504.1" x2="1062.3" y2="621.7"/><line class="cls-8" x1="1058.7" y1="504.1" x2="1058.7" y2="621.7"/><line class="cls-8" x1="1055.2" y1="504.1" x2="1055.2" y2="621.7"/><line class="cls-8" x1="1051.7" y1="504.1" x2="1051.7" y2="621.7"/><line class="cls-8" x1="1048.1" y1="504.1" x2="1048.1" y2="621.7"/><line class="cls-8" x1="1044.6" y1="504.1" x2="1044.6" y2="621.7"/><line class="cls-8" x1="1041.1" y1="504.1" x2="1041.1" y2="621.7"/><line class="cls-8" x1="1037.6" y1="504.1" x2="1037.6" y2="621.7"/><line class="cls-8" x1="1034" y1="504.1" x2="1034" y2="621.7"/><line class="cls-8" x1="1030.5" y1="504.1" x2="1030.5" y2="621.7"/><line class="cls-8" x1="1027" y1="504.1" x2="1027" y2="621.7"/><line class="cls-8" x1="1023.4" y1="504.1" x2="1023.4" y2="621.7"/><line class="cls-8" x1="1019.9" y1="504.1" x2="1019.9" y2="621.7"/><line class="cls-8" x1="1016.4" y1="504.1" x2="1016.4" y2="621.7"/><line class="cls-8" x1="1012.9" y1="504.1" x2="1012.9" y2="621.7"/><line class="cls-8" x1="1009.3" y1="504.1" x2="1009.3" y2="621.7"/><line class="cls-8" x1="1005.8" y1="504.1" x2="1005.8" y2="621.7"/><line class="cls-8" x1="1002.3" y1="504.1" x2="1002.3" y2="621.7"/><line class="cls-8" x1="998.7" y1="504.1" x2="998.7" y2="621.7"/><line class="cls-8" x1="995.2" y1="504.1" x2="995.2" y2="621.7"/><line class="cls-8" x1="991.7" y1="504.1" x2="991.7" y2="621.7"/><line class="cls-8" x1="988.2" y1="504.1" x2="988.2" y2="621.7"/><line class="cls-8" x1="984.6" y1="504.1" x2="984.6" y2="621.7"/><line class="cls-8" x1="981.1" y1="504.1" x2="981.1" y2="621.7"/><line class="cls-8" x1="977.6" y1="504.1" x2="977.6" y2="621.7"/><line class="cls-8" x1="974" y1="504.1" x2="974" y2="621.7"/><line class="cls-8" x1="970.5" y1="504.1" x2="970.5" y2="621.7"/><line class="cls-8" x1="967" y1="504.1" x2="967" y2="621.7"/><line class="cls-8" x1="963.5" y1="504.1" x2="963.5" y2="621.7"/><line class="cls-8" x1="959.9" y1="504.1" x2="959.9" y2="621.7"/><line class="cls-8" x1="956.4" y1="504.1" x2="956.4" y2="621.7"/><line class="cls-8" x1="952.9" y1="504.1" x2="952.9" y2="621.7"/><line class="cls-8" x1="949.3" y1="504.1" x2="949.3" y2="621.7"/><line class="cls-8" x1="945.8" y1="504.1" x2="945.8" y2="621.7"/><line class="cls-8" x1="942.3" y1="504.1" x2="942.3" y2="621.7"/><line class="cls-8" x1="938.8" y1="504.1" x2="938.8" y2="621.7"/><line class="cls-8" x1="935.2" y1="504.1" x2="935.2" y2="621.7"/><line class="cls-8" x1="931.7" y1="504.1" x2="931.7" y2="621.7"/><line class="cls-8" x1="928.2" y1="504.1" x2="928.2" y2="621.7"/><line class="cls-8" x1="924.6" y1="504.1" x2="924.6" y2="621.7"/></g><polygon class="cls-1" points="954.2 523.1 954.2 534.9 998.2 548.8 998.2 537.3 954.2 523.1"/><g class="cls-20"><line class="cls-8" x1="1065.8" y1="521.7" x2="1065.8" y2="639.3"/><line class="cls-8" x1="1062.3" y1="521.7" x2="1062.3" y2="639.3"/><line class="cls-8" x1="1058.7" y1="521.7" x2="1058.7" y2="639.3"/><line class="cls-8" x1="1055.2" y1="521.7" x2="1055.2" y2="639.3"/><line class="cls-8" x1="1051.7" y1="521.7" x2="1051.7" y2="639.3"/><line class="cls-8" x1="1048.1" y1="521.7" x2="1048.1" y2="639.3"/><line class="cls-8" x1="1044.6" y1="521.7" x2="1044.6" y2="639.3"/><line class="cls-8" x1="1041.1" y1="521.7" x2="1041.1" y2="639.3"/><line class="cls-8" x1="1037.6" y1="521.7" x2="1037.6" y2="639.3"/><line class="cls-8" x1="1034" y1="521.7" x2="1034" y2="639.3"/><line class="cls-8" x1="1030.5" y1="521.7" x2="1030.5" y2="639.3"/><line class="cls-8" x1="1027" y1="521.7" x2="1027" y2="639.3"/><line class="cls-8" x1="1023.4" y1="521.7" x2="1023.4" y2="639.3"/><line class="cls-8" x1="1019.9" y1="521.7" x2="1019.9" y2="639.3"/><line class="cls-8" x1="1016.4" y1="521.7" x2="1016.4" y2="639.3"/><line class="cls-8" x1="1012.9" y1="521.7" x2="1012.9" y2="639.3"/><line class="cls-8" x1="1009.3" y1="521.7" x2="1009.3" y2="639.3"/><line class="cls-8" x1="1005.8" y1="521.7" x2="1005.8" y2="639.3"/><line class="cls-8" x1="1002.3" y1="521.7" x2="1002.3" y2="639.3"/><line class="cls-8" x1="998.7" y1="521.7" x2="998.7" y2="639.3"/><line class="cls-8" x1="995.2" y1="521.7" x2="995.2" y2="639.3"/><line class="cls-8" x1="991.7" y1="521.7" x2="991.7" y2="639.3"/><line class="cls-8" x1="988.2" y1="521.7" x2="988.2" y2="639.3"/><line class="cls-8" x1="984.6" y1="521.7" x2="984.6" y2="639.3"/><line class="cls-8" x1="981.1" y1="521.7" x2="981.1" y2="639.3"/><line class="cls-8" x1="977.6" y1="521.7" x2="977.6" y2="639.3"/><line class="cls-8" x1="974" y1="521.7" x2="974" y2="639.3"/><line class="cls-8" x1="970.5" y1="521.7" x2="970.5" y2="639.3"/><line class="cls-8" x1="967" y1="521.7" x2="967" y2="639.3"/><line class="cls-8" x1="963.5" y1="521.7" x2="963.5" y2="639.3"/><line class="cls-8" x1="959.9" y1="521.7" x2="959.9" y2="639.3"/><line class="cls-8" x1="956.4" y1="521.7" x2="956.4" y2="639.3"/><line class="cls-8" x1="952.9" y1="521.7" x2="952.9" y2="639.3"/><line class="cls-8" x1="949.3" y1="521.7" x2="949.3" y2="639.3"/><line class="cls-8" x1="945.8" y1="521.7" x2="945.8" y2="639.3"/><line class="cls-8" x1="942.3" y1="521.7" x2="942.3" y2="639.3"/><line class="cls-8" x1="938.8" y1="521.7" x2="938.8" y2="639.3"/><line class="cls-8" x1="935.2" y1="521.7" x2="935.2" y2="639.3"/><line class="cls-8" x1="931.7" y1="521.7" x2="931.7" y2="639.3"/><line class="cls-8" x1="928.2" y1="521.7" x2="928.2" y2="639.3"/><line class="cls-8" x1="924.6" y1="521.7" x2="924.6" y2="639.3"/></g><polygon class="cls-1" points="954.2 540.8 954.2 552.5 998.2 566.5 998.2 554.9 954.2 540.8"/><polygon class="cls-11" points="1077.4 652.1 995.9 699.2 1057 734.4 1138.6 687.4 1077.4 652.1"/><path class="cls-5" d="M1033.7,632.3c1.5-9.4,3-18.6,4.3-27l149.4-7.7L1143,571.9l-2.8.2-56.5,3-50.8,2.7,60.1-34.7-35.7-20.6L894.1,616.8l35.6,20.6,60.7-35-10.5,63.9,44.6,25.8,1-7.5C1027.7,669.5,1030.7,650.6,1033.7,632.3Z"/><polygon class="cls-2" points="894.1 616.8 894.1 687.3 929.7 707.9 929.7 637.4 894.1 616.8"/><polygon class="cls-5" points="1038 605.3 1024.5 692.1 1024.5 762.6 1038 675.9 1038 605.3"/><polygon class="cls-2" points="1038 605.3 1038 675.9 1187.4 668.2 1187.4 597.6 1038 605.3"/><path class="cls-6" d="M979.9,666.3l10.5,6.6-60.7,35V637.4l60.7-35Zm53-88.5,60.1-3.2V543.1Z"/><polygon class="cls-12" points="929.7 605 909.4 616.8 929.7 628.5 950.1 616.8 929.7 605"/><g class="cls-21"><polygon class="cls-2" points="919.5 620.6 939.9 632.4 939.9 637.1 919.5 625.4 919.5 620.6"/><polygon class="cls-5" points="919.5 620.6 923.1 618.6 943.4 630.4 939.9 632.4 919.5 620.6"/><polygon class="cls-3" points="939.9 637.1 943.4 635 943.4 630.4 939.9 632.4 939.9 637.1"/><polygon class="cls-2" points="916.1 627.5 936.5 639.3 936.5 644 916.1 632.2 916.1 627.5"/><polygon class="cls-5" points="916.1 627.5 919.6 625.5 939.9 637.3 936.5 639.3 916.1 627.5"/><polygon class="cls-3" points="936.5 644 939.9 641.9 939.9 637.3 936.5 639.3 936.5 644"/><polygon class="cls-2" points="926.3 607 946.7 618.8 946.7 623.5 926.3 611.7 926.3 607"/><polygon class="cls-5" points="926.3 607 929.8 605 950.1 616.8 946.7 618.8 926.3 607"/><polygon class="cls-3" points="946.7 623.5 950.1 621.4 950.1 616.8 946.7 618.8 946.7 623.5"/><polygon class="cls-2" points="922.9 613.9 943.3 625.7 943.2 630.4 922.9 618.6 922.9 613.9"/><polygon class="cls-5" points="922.9 613.9 926.4 611.9 946.7 623.7 943.3 625.7 922.9 613.9"/><polygon class="cls-3" points="943.2 630.4 946.7 628.3 946.7 623.7 943.3 625.7 943.2 630.4"/></g><polygon class="cls-1" points="929.7 605 909.4 616.8 929.7 628.5 950.1 616.8 929.7 605"/><path class="cls-22" d="M1145.1,646.5l-4-3.6-4.1,4.3-4.2-3.6-4.9,4.4-4.8-3.6-4.9,4.4-4.6-3.6-4.8,4.3V601.7l36.3-2Z"/><polygon class="cls-6" points="1142.7 540.6 1142.7 559.4 1163 571.2 1152.8 555.9 1163 552.4 1142.7 540.6"/><line class="cls-1" x1="1142.6" y1="587.6" x2="1142.7" y2="540.6"/><polygon class="cls-6" points="1057.1 493.3 1057.1 512.1 1077.4 523.9 1067.2 508.6 1077.4 505.1 1057.1 493.3"/><line class="cls-1" x1="1057.1" y1="540.4" x2="1057.1" y2="493.3"/><polygon class="cls-5" points="1053.2 592.2 1072 581.3 1090.8 592.2 1072 603 1053.2 592.2"/><polygon class="cls-2" points="1053.2 592.2 1053.2 635.6 1072 668.2 1072 603 1053.2 592.2"/><polygon class="cls-2" points="1072 668.2 1043.8 695.3 1072 711.6 1072 668.2"/><path class="cls-6" d="M1090.8,635.6,1072,668.2V603l18.8-10.8Zm-18.8,76,28.2-16.3L1072,668.2Z"/><polygon class="cls-5" points="899.2 628.6 899.2 652.1 909.4 658 909.4 634.5 899.2 628.6"/><polygon class="cls-6" points="899.2 652.1 909.4 646.2 909.4 634.5 899.2 628.6 899.2 652.1"/><polygon class="cls-5" points="914.5 637.4 914.5 660.9 924.7 666.8 924.7 643.3 914.5 637.4"/><polygon class="cls-6" points="914.5 660.9 924.7 655 924.7 643.3 914.5 637.4 914.5 660.9"/><polygon class="cls-5" points="899.2 658 899.2 681.5 909.4 687.4 909.4 663.9 899.2 658"/><polygon class="cls-6" points="899.2 681.5 909.4 675.6 909.4 663.9 899.2 658 899.2 681.5"/><polygon class="cls-5" points="914.5 666.8 914.5 690.3 924.7 696.2 924.7 672.7 914.5 666.8"/><polygon class="cls-6" points="914.5 690.3 924.7 684.4 924.7 672.7 914.5 666.8 914.5 690.3"/><polygon class="cls-5" points="980.7 671.5 990.9 677.3 950.1 700.9 939.9 695 980.7 671.5"/><polygon class="cls-6" points="990.9 677.3 990.9 684.4 950.1 707.9 950.1 700.9 990.9 677.3"/><polygon class="cls-2" points="939.9 695 950.1 700.9 950.1 707.9 939.9 702.1 939.9 695"/><polygon class="cls-2" points="979.9 666.3 979.9 736.9 1024.5 762.6 1024.5 692.1 979.9 666.3"/><polygon class="cls-6" points="986.9 676.3 986.9 735.1 1017.5 752.7 1017.5 693.9 986.9 676.3"/><polygon class="cls-5" points="986.9 735.1 1017.5 717.4 1017.5 752.7 986.9 735.1"/><line class="cls-6" x1="1002.2" y1="685.1" x2="1002.2" y2="743.9"/><line class="cls-6" x1="986.9" y1="705.7" x2="1017.5" y2="723.3"/><polygon class="cls-5" points="968.5 655 968.5 678.6 948.1 690.3 948.1 666.8 968.5 655"/><polygon class="cls-3" points="968.5 678.6 948.1 666.8 968.5 655 968.5 678.6"/><line class="cls-2" x1="958.3" y1="660.9" x2="958.3" y2="684.5"/><line class="cls-2" x1="956.2" y1="674" x2="953.7" y2="675.5"/><line class="cls-2" x1="963.2" y1="670.4" x2="960.6" y2="671.8"/><polygon class="cls-2" points="968.5 615 948.1 626.8 948.1 654.4 958.3 638.5 968.5 643.2 968.5 615"/><polygon class="cls-2" points="983.4 570.5 1003.8 582.3 1003.8 587 983.4 575.2 983.4 570.5"/><polygon class="cls-5" points="983.4 570.5 986.9 568.5 1007.3 580.3 1003.8 582.3 983.4 570.5"/><polygon class="cls-3" points="1003.8 587 1007.3 584.9 1007.3 580.3 1003.8 582.3 1003.8 587"/><polygon class="cls-2" points="995.4 563.6 1015.7 575.4 1015.7 580.1 995.4 568.3 995.4 563.6"/><polygon class="cls-5" points="995.4 563.6 998.9 561.6 1019.2 573.4 1015.7 575.4 995.4 563.6"/><polygon class="cls-3" points="1015.7 580.1 1019.2 578 1019.2 573.4 1015.7 575.4 1015.7 580.1"/><polygon class="cls-2" points="1007.3 556.8 1027.6 568.5 1027.6 573.2 1007.3 561.5 1007.3 556.8"/><polygon class="cls-5" points="1007.3 556.8 1010.8 554.7 1031.1 566.5 1027.6 568.5 1007.3 556.8"/><polygon class="cls-3" points="1027.6 573.2 1031.1 571.1 1031.1 566.5 1027.6 568.5 1027.6 573.2"/><polygon class="cls-2" points="1019.2 549.9 1039.5 561.6 1039.5 566.3 1019.2 554.6 1019.2 549.9"/><polygon class="cls-5" points="1019.2 549.9 1022.7 547.8 1043 559.6 1039.5 561.6 1019.2 549.9"/><polygon class="cls-3" points="1039.5 566.3 1043 564.2 1043 559.6 1039.5 561.6 1039.5 566.3"/><polygon class="cls-2" points="1031.1 543 1051.5 554.8 1051.4 559.5 1031.1 547.7 1031.1 543"/><polygon class="cls-5" points="1031.1 543 1034.6 541 1054.9 552.7 1051.5 554.8 1031.1 543"/><polygon class="cls-3" points="1051.4 559.5 1054.9 557.3 1054.9 552.7 1051.5 554.8 1051.4 559.5"/><path class="cls-2" d="M1008,665a3.1,3.1,0,0,1,1.8-2.5,9.5,9.5,0,0,1,8.7,0,3.1,3.1,0,0,1,1.8,2.5v8.7m0,0a3.1,3.1,0,0,1-1.8,2.5,9.5,9.5,0,0,1-8.7,0,3.1,3.1,0,0,1-1.8-2.5V665"/><ellipse class="cls-5" cx="1014.2" cy="665" rx="6.2" ry="3.6"/><path class="cls-2" d="M989.2,653.6a3.1,3.1,0,0,1,1.8-2.5,9.5,9.5,0,0,1,8.7,0,3.1,3.1,0,0,1,1.8,2.5v8.7m0,0a3.1,3.1,0,0,1-1.8,2.6,9.5,9.5,0,0,1-8.7,0,3.1,3.1,0,0,1-1.8-2.6v-8.7"/><ellipse class="cls-5" cx="995.4" cy="653.6" rx="6.2" ry="3.6"/><g class="cls-23"><g class="cls-24"><path class="cls-14" d="M1121.7,604.9l-2.6.2a3.2,3.2,0,0,0-1.4.3l-1,.8-.8.8-.5.7a.3.3,0,0,0-.1.2c-.1.1-.2.2-.2.3l-.2.3c0,.2-.1.3-.1.4l-.2.7,3.6.8.2-.6.2-.3c0-.1.1-.2.2-.3s.1-.1.2-.2.2-.1.2-.2l2.3-.2c.1,0,.1,0,.1.1h.2v.2h.1v1.4l-4.9,3-.9.7a2.7,2.7,0,0,0-.7.8,3.6,3.6,0,0,0-.4.9,3.4,3.4,0,0,0-.1,1v4.9l10.6-.9v-3.7l-6.8.6v-1.1l4.9-2.9.9-.7.6-.9a4.1,4.1,0,0,0,.5-.9c0-.3.1-.6.1-1v-2.1a.9.9,0,0,1-.1-.5c-.1-.1-.1-.3-.2-.4l-.3-.4-.2-.4-.4-.4-.5-.3c-.1-.2-.2-.2-.3-.3l-.5-.3h-1.1a.5.5,0,0,0-.5,0"/><path class="cls-14" d="M1131.8,616.7h-.2c0-.1-.1-.1-.2-.2l-.2-.2a.3.3,0,0,1-.1-.2v-7.5l.2-.2c0-.1.1-.1.1-.2s.2-.1.2-.2h.2l2.3-.2h.3c.1.1.1.2.2.2l.2.2v7.5c-.1.1-.2.2-.2.3s-.1.1-.2.2-.1.1-.2.2h-.1l-2.3.2m2.5-12.9-2.7.2h-.5l-.5.2-.4.2a.5.5,0,0,0-.4.2,1.2,1.2,0,0,0-.5.5,1.7,1.7,0,0,0-.6.6l-.5.6-.4.5a.5.5,0,0,0-.2.4c-.1.1-.1.3-.2.4s-.1.3-.1.5V617c0,.2.1.3.1.5s.1.2.2.4.1.2.2.4l.3.4.6.5a1.2,1.2,0,0,0,.5.5l.5.3.5.2.4.2h1l2.7-.2h.9l.4-.2.4-.3.6-.4.6-.7.5-.6.3-.4h0c.1-.2.2-.3.2-.4l.2-.5c0-.1.1-.3.1-.4v-8.8a.9.9,0,0,0-.1-.5c0-.1-.1-.2-.1-.4l-.3-.4c0-.1-.1-.2-.3-.4l-.5-.5-.5-.5-.6-.4-.4-.2h-1.4"/><polyline class="cls-14" points="1122.8 624.2 1116 624.7 1116.1 628.5 1119 628.2 1119 640.5 1122.8 640.2 1122.8 624.2"/><path class="cls-14" d="M1131.4,635.8h-.3a.1.1,0,0,0-.1-.1v-1.8l.2-.2a.1.1,0,0,1,.1-.1h.1l2.6-.2h.3l.2.2v1.8h-.1a.1.1,0,0,1-.1.1h0s-.1.1,0,.1l-2.8.2m.1-6.2c-.1,0-.1,0-.1-.1h-.1c-.1-.1-.1-.1-.1-.2h-.2v-1.7c0-.1,0-.2.1-.2h.1c0-.1,0-.1.1-.1h0l2.7-.2h.2c0,.1,0,.1.1.1s0,.1.1.2v1.7a.1.1,0,0,0-.1.1c-.1.1-.1.1-.1.2h-.2l-2.6.3m2.7-6.5-2.8.2h-.6l-.5.2-.5.2-.5.3-.3.4-.5.4-.4.5-.3.4c-.1.1-.1.3-.2.4s-.1.4-.2.5-.1.3-.1.5v3.1c.1.2.1.4.2.5l.3.5c0,.1.1.2.3.4a.8.8,0,0,0-.4.4c0,.2-.1.3-.2.5s-.1.4-.2.6v3.2c0,.1.1.3.1.4l.2.5c.1.1.1.2.2.4l.3.3.4.4.4.4.4.2.5.3h1.5l2.8-.3h1.1l.5-.3.4-.3.4-.3.4-.5a1,1,0,0,0,.4-.5q.3-.1.3-.3h0l.3-.5a4.3,4.3,0,0,0,.1-.5.6.6,0,0,0,.1-.4,1.1,1.1,0,0,0,.1-.5v-2a1.5,1.5,0,0,0-.1-.7c0-.2-.1-.4-.1-.6l-.3-.4-.3-.4c.2-.1.2-.3.3-.4l.3-.5c0-.2.1-.4.1-.6a1.3,1.3,0,0,0,.1-.6v-2.5a.6.6,0,0,1-.1-.4l-.2-.5c-.1-.1-.1-.2-.2-.4l-.3-.3-.4-.4-.4-.4-.4-.2-.4-.3-.5-.2h-.6a.5.5,0,0,0-.5,0"/></g></g><path class="cls-25" d="M1222.8,773.6l-47.7-50.1.3-.3,12.3-7.1a83.8,83.8,0,0,1,16.5.2h0l36.4,21c1.1,3.7-.1,9.5-.8,11.5l-.7,2.5,43.5,13.9,2.4-3.8c2.3-3.7,3.4-5.9,4.2-9,1.8-7.6,5.5-23.6-13.1-34.3L1237.8,696c-8.2-4.7-19.9-6.9-23.4-7.5-9.8-1.5-32.2-1.3-40.5-.3a57.1,57.1,0,0,0-21.7,7.2l-14,8.1c-12.5,7.2-20.6,20.3-9,32.1l48,49.8c0,.1,0,.2-.2.3l-14.5,8.4a104.7,104.7,0,0,1-17.6-.2l-42.5-24.5h0a30,30,0,0,1,.7-11.6l.7-2.6-44.5-12.8-2,3.9a18.2,18.2,0,0,0-1,1.9,22.5,22.5,0,0,0-2.6,5.9c-2.6,10.1-4,24.5,13.1,34.4l45,26c6.6,3.8,16.7,6.4,23.4,7.5,9.6,1.5,31.4,1.2,40.2.2a55.8,55.8,0,0,0,22-7.1l16.3-9.4C1226.2,798.5,1234.4,785.3,1222.8,773.6Z"/><path class="cls-6" d="M1223.3,727.3l17.3,10c1.1,3.7-.1,9.5-.8,11.5l-.7,2.5,43.5,13.9,2.4-3.8c2.3-3.7,3.4-5.9,4.2-9a50.8,50.8,0,0,0,1.6-10.9V671a49.4,49.4,0,0,1-1.6,10.8c-.8,3.1-1.9,5.3-4.2,9l-2.4,3.8-43.5-13.9.7-2.5c.7-2,1.9-7.8.8-11.5l-36.4-21h0a83.8,83.8,0,0,0-16.5-.2l-12.3,7.1-.3.3,47.7,50.1c8.1,8.3,6.5,17.2.5,24.3"/><path class="cls-2" d="M1052.6,759.7c-1.4,9.3,0,20.6,14.2,28.8l45,26c6.6,3.8,16.7,6.4,23.4,7.5,9.6,1.5,31.4,1.2,40.2.2a55.8,55.8,0,0,0,22-7.1l16.3-9.4c8.5-4.9,15-12.5,14.6-20.6V714.5c.4,8.1-6.1,15.7-14.6,20.6l-16.3,9.4a52.8,52.8,0,0,1-22,7.1c-8.8,1-30.6,1.3-40.2-.2-6.7-1.1-16.8-3.7-23.4-7.5l-45-26a29.5,29.5,0,0,1-14.5-20.3Z"/><path class="cls-6" d="M1123.8,711.2l21.1,12.1a95.1,95.1,0,0,0,17.6.2l14.5-8.4c.2-.1.2-.2.2-.3l-48-49.8a19.1,19.1,0,0,1-5.4-9.7v55.9"/><path class="cls-5" d="M1103.8,684.7s-2.9,7.8-1.4,14.1l1.4.8Z"/><path class="cls-6" d="M1055.5,728.1a14,14,0,0,0,1.6,2.6c1.2,1.9,4,4.4,5.8,6V720.8a49.2,49.2,0,0,1-5.8-6.5l-1.6-2.5Z"/><polygon class="cls-6" points="1081.2 748 1075.9 744.9 1070.9 742 1070.9 725.5 1075.9 728.4 1081.2 731.5 1081.2 748"/><polygon class="cls-6" points="1099.1 758.3 1094.5 755.6 1090.3 753.2 1090.3 736.7 1094.5 739.2 1099.1 741.8 1099.1 758.3"/><path class="cls-6" d="M1116.5,767.9a41.2,41.2,0,0,1-4.7-2.3l-4.2-2.4V746.7l4.2,2.4a29.3,29.3,0,0,0,4.7,2.3Z"/><path class="cls-6" d="M1135.2,773.1l-4-.8-4.4-1V754.8l4.4,1.1,4,.7Z"/><path class="cls-6" d="M1155.1,774.1h-5.4l-4.5-.2V757.5h9.9Z"/><path class="cls-6" d="M1170.9,773.7l-4.6.2h-3.9V757.6l3.9-.2,4.6-.2Z"/><path class="cls-6" d="M1186.6,771l-4.1,1.1-3.6.7V756.4l3.6-.7c1.4-.4,2.8-.7,4.1-1.2Z"/><path class="cls-6" d="M1200.2,764.6l-2.8,1.6a26.9,26.9,0,0,1-2.9,1.6V751.3a26.9,26.9,0,0,0,2.9-1.6l2.8-1.6Z"/><polygon class="cls-6" points="1213.7 756.8 1210.4 758.7 1206.8 760.8 1206.8 744.3 1210.4 742.2 1213.7 740.3 1213.7 756.8"/><path class="cls-6" d="M1224.6,747.3a20.1,20.1,0,0,1-2.3,2.8,31.3,31.3,0,0,1-2.6,2.5V736.1a20.6,20.6,0,0,0,2.6-2.5,20.1,20.1,0,0,0,2.3-2.8Z"/><path class="cls-5" d="M1053.1,716.4l1.6,2.6a47.5,47.5,0,0,0,5.9,6l2.3-4.2a49.2,49.2,0,0,1-5.8-6.5l-1.6-2.5Z"/><polygon class="cls-5" points="1080.1 736.2 1074.7 733.1 1069.8 730.2 1070.9 725.5 1075.9 728.4 1081.2 731.5 1080.1 736.2"/><polygon class="cls-5" points="1097.6 746.1 1093 743.5 1088.8 741 1090.3 736.7 1094.5 739.2 1099.1 741.8 1097.6 746.1"/><path class="cls-5" d="M1115,756.4a41.2,41.2,0,0,1-4.7-2.3l-4.2-2.4,1.5-5,4.2,2.4a29.3,29.3,0,0,0,4.7,2.3Z"/><path class="cls-5" d="M1134.3,761.1l-3.9-.7-4.4-1.1.8-4.5,4.4,1.1,4,.7Z"/><path class="cls-5" d="M1155.7,762.4h-6l-4.9-.2.4-4.6h9.9Z"/><path class="cls-5" d="M1171.5,762.1l-4.7.2-3.8.2-.6-4.9,3.9-.2,4.6-.2Z"/><path class="cls-5" d="M1187.5,759.3c-1.3.5-2.7.8-4.1,1.2l-3.6.7-.9-4.8,3.6-.7c1.4-.4,2.8-.7,4.1-1.2Z"/><path class="cls-5" d="M1201.6,752.8l-2.8,1.7-2.9,1.5-1.4-4.7a26.9,26.9,0,0,0,2.9-1.6l2.8-1.6Z"/><polygon class="cls-5" points="1215.3 745.4 1212 747.3 1208.4 749.4 1206.8 744.3 1210.4 742.2 1213.7 740.3 1215.3 745.4"/><path class="cls-5" d="M1226.5,735.8a28.3,28.3,0,0,1-2.3,2.8,30.8,30.8,0,0,1-2.6,2.4l-1.9-4.9a20.6,20.6,0,0,0,2.6-2.5,20.1,20.1,0,0,0,2.3-2.8Z"/><path class="cls-6" d="M1055.5,749.3a18.3,18.3,0,0,0,1.6,2.6,40.8,40.8,0,0,0,5.8,6v-16a39.2,39.2,0,0,1-5.8-6.5l-1.6-2.4Z"/><polygon class="cls-6" points="1081.2 769.1 1075.9 766 1070.9 763.2 1070.9 746.7 1075.9 749.6 1081.2 752.7 1081.2 769.1"/><polygon class="cls-6" points="1099.1 779.4 1094.5 776.8 1090.3 774.4 1090.3 757.9 1094.5 760.3 1099.1 763 1099.1 779.4"/><path class="cls-6" d="M1116.5,789.1a41.2,41.2,0,0,1-4.7-2.3l-4.2-2.4V767.9l4.2,2.4a41.2,41.2,0,0,0,4.7,2.3Z"/><path class="cls-6" d="M1135.2,794.2l-4-.7-4.4-1V776l4.4,1,4,.8Z"/><path class="cls-6" d="M1155.1,795.3h-9.9V778.6l4.5.2h5.4Z"/><path class="cls-6" d="M1170.9,794.8l-4.6.3h-3.9V778.7h3.9l4.6-.2Z"/><path class="cls-6" d="M1186.6,792.2l-4.1,1.1-3.6.7V777.5l3.6-.7,4.1-1.1Z"/><path class="cls-6" d="M1200.2,785.8l-2.8,1.6-2.9,1.6V772.5a26.9,26.9,0,0,0,2.9-1.6l2.8-1.6Z"/><polygon class="cls-6" points="1213.7 778 1210.4 779.9 1206.8 782 1206.8 765.5 1210.4 763.4 1213.7 761.5 1213.7 778"/><path class="cls-6" d="M1224.6,768.5a28.3,28.3,0,0,1-2.3,2.8,30.8,30.8,0,0,1-2.6,2.4V757.3a31.3,31.3,0,0,0,2.6-2.5,20.1,20.1,0,0,0,2.3-2.8Z"/><path class="cls-5" d="M1053.1,737.5a22.6,22.6,0,0,0,1.6,2.6,42.2,42.2,0,0,0,5.9,6.1l2.3-4.3a39.2,39.2,0,0,1-5.8-6.5l-1.6-2.4Z"/><polygon class="cls-5" points="1080.1 757.4 1074.7 754.3 1069.8 751.4 1070.9 746.7 1075.9 749.6 1081.2 752.7 1080.1 757.4"/><polygon class="cls-5" points="1097.6 767.3 1093 764.6 1088.8 762.2 1090.3 757.9 1094.5 760.3 1099.1 763 1097.6 767.3"/><path class="cls-5" d="M1115,777.6a41.2,41.2,0,0,1-4.7-2.3l-4.2-2.4,1.5-5,4.2,2.4a41.2,41.2,0,0,0,4.7,2.3Z"/><path class="cls-5" d="M1134.3,782.3l-3.9-.8-4.4-1,.8-4.5,4.4,1,4,.8Z"/><path class="cls-5" d="M1155.7,783.5h-6l-4.9-.2.4-4.7,4.5.2h5.4Z"/><path class="cls-5" d="M1171.5,783.3l-4.7.2H1163l-.6-4.9h3.9l4.6-.2Z"/><path class="cls-5" d="M1187.5,780.5l-4.1,1.1-3.6.7-.9-4.8,3.6-.7,4.1-1.1Z"/><path class="cls-5" d="M1201.6,774l-2.8,1.6a26.9,26.9,0,0,1-2.9,1.6l-1.4-4.7a26.9,26.9,0,0,0,2.9-1.6l2.8-1.6Z"/><polygon class="cls-5" points="1215.3 766.6 1212 768.5 1208.4 770.6 1206.8 765.5 1210.4 763.4 1213.7 761.5 1215.3 766.6"/><path class="cls-5" d="M1226.5,756.9a20.1,20.1,0,0,1-2.3,2.8,20.6,20.6,0,0,1-2.6,2.5l-1.9-4.9a31.3,31.3,0,0,0,2.6-2.5,20.1,20.1,0,0,0,2.3-2.8Z"/><path class="cls-6" d="M1055.5,770.5a26.3,26.3,0,0,0,1.6,2.6c1.2,1.8,4,4.3,5.8,6v-16a43.6,43.6,0,0,1-5.8-6.5,21.3,21.3,0,0,1-1.6-2.5Z"/><polygon class="cls-6" points="1081.2 790.3 1075.9 787.2 1070.9 784.3 1070.9 767.9 1075.9 770.8 1081.2 773.8 1081.2 790.3"/><polygon class="cls-6" points="1099.1 800.6 1094.5 798 1090.3 795.5 1090.3 779.1 1094.5 781.5 1099.1 784.1 1099.1 800.6"/><path class="cls-6" d="M1116.5,810.2a41.2,41.2,0,0,1-4.7-2.2l-4.2-2.5V789.1l4.2,2.4a41.2,41.2,0,0,0,4.7,2.3Z"/><path class="cls-6" d="M1135.2,815.4l-4-.7-4.4-1.1V797.2l4.4,1,4,.8Z"/><path class="cls-6" d="M1155.1,816.5h-9.9V799.8h9.9Z"/><path class="cls-6" d="M1170.9,816l-4.6.3h-3.9V799.9h3.9l4.6-.3Z"/><path class="cls-6" d="M1186.6,813.3c-1.3.5-2.7.8-4.1,1.2l-3.6.7V798.7l3.6-.7,4.1-1.1Z"/><path class="cls-6" d="M1200.2,806.9l-2.8,1.6a26.9,26.9,0,0,1-2.9,1.6V793.7l2.9-1.6,2.8-1.6Z"/><polygon class="cls-6" points="1213.7 799.1 1210.4 801 1206.8 803.1 1206.8 786.7 1210.4 784.6 1213.7 782.7 1213.7 799.1"/><path class="cls-6" d="M1224.6,789.6a20.1,20.1,0,0,1-2.3,2.8,20.6,20.6,0,0,1-2.6,2.5V778.4a20,20,0,0,0,2.6-2.4,28.3,28.3,0,0,0,2.3-2.8Z"/><path class="cls-5" d="M1053.1,758.7l1.6,2.6a41.6,41.6,0,0,0,5.9,6l2.3-4.2a43.6,43.6,0,0,1-5.8-6.5,21.3,21.3,0,0,1-1.6-2.5Z"/><polygon class="cls-5" points="1080.1 778.5 1074.7 775.5 1069.8 772.6 1070.9 767.9 1075.9 770.8 1081.2 773.8 1080.1 778.5"/><polygon class="cls-5" points="1097.6 788.5 1093 785.8 1088.8 783.4 1090.3 779.1 1094.5 781.5 1099.1 784.1 1097.6 788.5"/><path class="cls-5" d="M1115,798.7a29.3,29.3,0,0,1-4.7-2.3l-4.2-2.4,1.5-4.9,4.2,2.4a41.2,41.2,0,0,0,4.7,2.3Z"/><path class="cls-5" d="M1134.3,803.4l-3.9-.7-4.4-1,.8-4.5,4.4,1,4,.8Z"/><path class="cls-5" d="M1155.7,804.7h-10.9l.4-4.7h9.9Z"/><path class="cls-5" d="M1171.5,804.4l-4.7.3H1163l-.6-4.9h3.9l4.6-.3Z"/><path class="cls-5" d="M1187.5,801.7l-4.1,1.1-3.6.7-.9-4.8,3.6-.7,4.1-1.1Z"/><path class="cls-5" d="M1201.6,795.2l-2.8,1.6a26.9,26.9,0,0,1-2.9,1.6l-1.4-4.7,2.9-1.6,2.8-1.6Z"/><polygon class="cls-5" points="1215.3 787.7 1212 789.6 1208.4 791.7 1206.8 786.7 1210.4 784.6 1213.7 782.7 1215.3 787.7"/><path class="cls-5" d="M1226.5,778.1a20.1,20.1,0,0,1-2.3,2.8,20.6,20.6,0,0,1-2.6,2.5l-1.9-5a20,20,0,0,0,2.6-2.4,28.3,28.3,0,0,0,2.3-2.8Z"/><polygon class="cls-6" points="1271.5 736.1 1271.5 741.7 1266.2 744.3 1271.5 736.1"/><polygon class="cls-2" points="1127.8 669.9 1127.8 693.4 1138 706.3 1138 680.5 1127.8 669.9"/><polygon class="cls-5" points="1127.8 695.8 1130.5 694.2 1130.5 672.6 1127.8 669.9 1127.8 695.8"/><polygon class="cls-5" points="1127.8 695.8 1138 706.3 1138 702.2 1130.5 694.2 1127.8 695.8"/><polygon class="cls-2" points="1127.8 701.7 1127.8 725.2 1138 738.2 1138 712.3 1127.8 701.7"/><polygon class="cls-5" points="1127.8 727.6 1130.5 726 1130.5 704.4 1127.8 701.7 1127.8 727.6"/><polygon class="cls-5" points="1127.8 727.6 1138 738.2 1138 734 1130.5 726 1127.8 727.6"/><polygon class="cls-2" points="1143.2 685.8 1143.2 709.3 1153.4 722.2 1153.4 696.4 1143.2 685.8"/><polygon class="cls-5" points="1143.2 711.7 1145.8 710.1 1145.8 688.5 1143.2 685.8 1143.2 711.7"/><polygon class="cls-5" points="1143.2 711.7 1153.4 722.2 1153.4 718.1 1145.8 710.1 1143.2 711.7"/><path class="cls-5" d="M1222.8,703l-47.7-50.1.3-.3,12.3-7.1a83.8,83.8,0,0,1,16.5.2h0l36.4,21c1.1,3.7-.1,9.5-.8,11.5l-.7,2.5,43.5,13.9,2.4-3.8c2.3-3.7,3.4-5.9,4.2-9,1.8-7.6,5.5-23.5-13.1-34.2l-38.3-22.2c-8.2-4.7-19.9-6.9-23.4-7.4-9.8-1.6-32.2-1.3-40.5-.4a58.9,58.9,0,0,0-21.7,7.2l-14,8.1c-12.5,7.2-20.6,20.3-9,32.1l48,49.8c0,.1,0,.2-.2.3l-14.5,8.4a95.1,95.1,0,0,1-17.6-.2l-42.5-24.5h0c-1-5.5.7-11.5.7-11.6l.7-2.5-44.5-12.9-2,3.9c-.4.8-.8,1.4-1,1.9a24.8,24.8,0,0,0-2.6,6c-2.6,10-4,24.5,13.1,34.3l45,26c6.6,3.8,16.7,6.4,23.4,7.5,9.6,1.5,31.4,1.2,40.2.2a52.8,52.8,0,0,0,22-7.1l16.3-9.4C1226.2,727.9,1234.4,714.8,1222.8,703Z"/><polygon class="cls-2" points="1282.6 694.6 1282.6 765.2 1239.1 751.3 1239.1 680.7 1282.6 694.6"/><polygon class="cls-5" points="1250.7 731.3 1250.7 754.8 1271 761.3 1271 737.7 1250.7 731.3"/><polygon class="cls-3" points="1250.7 754.8 1271 737.7 1250.7 731.3 1250.7 754.8"/><line class="cls-2" x1="1260.9" y1="734.5" x2="1260.9" y2="758"/><line class="cls-1" x1="1258.5" y1="745.6" x2="1256.3" y2="744.9"/><line class="cls-1" x1="1265.4" y1="747.8" x2="1263.2" y2="747.1"/><polygon class="cls-2" points="1251.2 729.7 1245.2 737.7 1266.2 744.3 1271.5 736.1 1251.2 729.7"/><polygon class="cls-5" points="1250.7 701.8 1250.7 725.4 1271 731.9 1271 708.3 1250.7 701.8"/><polygon class="cls-3" points="1250.7 725.4 1271 708.3 1271 696.5 1250.7 690 1250.7 725.4"/><line class="cls-2" x1="1260.9" y1="693.3" x2="1260.9" y2="728.6"/><line class="cls-1" x1="1250.7" y1="693.6" x2="1271" y2="700"/><line class="cls-1" x1="1250.7" y1="697.1" x2="1271" y2="703.6"/><line class="cls-1" x1="1250.7" y1="700.6" x2="1271" y2="707.1"/><line class="cls-1" x1="1250.7" y1="704.2" x2="1271" y2="710.6"/><line class="cls-1" x1="1250.7" y1="707.7" x2="1271" y2="714.1"/><line class="cls-1" x1="1250.7" y1="711.2" x2="1271" y2="717.7"/><line class="cls-1" x1="1250.7" y1="714.8" x2="1271" y2="721.2"/><line class="cls-1" x1="1250.7" y1="718.3" x2="1271" y2="724.7"/><line class="cls-1" x1="1250.7" y1="721.8" x2="1271" y2="728.3"/><path class="cls-6" d="M1282.6,671.1s8.9-11.1,8.2-24.8V671s1.1,11-8.2,23.6Z"/><polygon class="cls-6" points="1129.2 641.5 1129.2 665 1175.1 652.9 1175.1 629.4 1129.2 641.5"/><path class="cls-2" d="M1129.2,665s-6-5.7-5.6-13.8V629.4s.5,7.3,5.6,12.1Z"/><polygon class="cls-5" points="1162.3 632.6 1162.3 656.2 1142 661.6 1142 638.1 1162.3 632.6"/><polygon class="cls-3" points="1162.3 656.2 1142 638.1 1162.3 632.6 1162.3 656.2"/><line class="cls-2" x1="1152.2" y1="635.4" x2="1152.2" y2="658.9"/><line class="cls-1" x1="1154.5" y1="647" x2="1156.7" y2="646.3"/><line class="cls-1" x1="1147.6" y1="649.2" x2="1149.8" y2="648.4"/><ellipse class="cls-6" cx="1170.3" cy="662.7" rx="5.4" ry="3.1"/><line class="cls-1" x1="1170.3" y1="668.7" x2="1170.3" y2="666"/><ellipse class="cls-6" cx="1156.8" cy="672.8" rx="5.4" ry="3.1"/><line class="cls-1" x1="1156.8" y1="678.8" x2="1156.8" y2="676.1"/><ellipse class="cls-6" cx="1184.4" cy="676.8" rx="5.4" ry="3.1"/><line class="cls-1" x1="1184.4" y1="682.8" x2="1184.4" y2="680.1"/><ellipse class="cls-6" cx="1170.9" cy="686.9" rx="5.4" ry="3.1"/><line class="cls-1" x1="1170.9" y1="692.9" x2="1170.9" y2="690.2"/><ellipse class="cls-6" cx="1198.5" cy="690.9" rx="5.4" ry="3.1"/><line class="cls-1" x1="1198.5" y1="696.9" x2="1198.5" y2="694.3"/><ellipse class="cls-6" cx="1185" cy="701" rx="5.4" ry="3.1"/><line class="cls-1" x1="1185" y1="707" x2="1185" y2="704.4"/><ellipse class="cls-6" cx="1212.6" cy="705" rx="5.4" ry="3.1"/><line class="cls-1" x1="1212.6" y1="711" x2="1212.6" y2="708.4"/><ellipse class="cls-6" cx="1199.1" cy="715.1" rx="5.4" ry="3.1"/><line class="cls-1" x1="1199.1" y1="721.1" x2="1199.1" y2="718.5"/><polygon class="cls-6" points="1203.9 621.9 1203.9 645.4 1234.4 663 1234.4 639.5 1203.9 621.9"/><polygon class="cls-5" points="1203.9 645.4 1224.7 634 1241.8 643.7 1241.3 667 1203.9 645.4"/><line class="cls-6" x1="1224" y1="633.4" x2="1224" y2="656.9"/><line class="cls-6" x1="1203.9" y1="633.6" x2="1241.4" y2="655.3"/><path class="cls-5" d="M1175.1,629.4l.3-.3,12.3-7.1a83.8,83.8,0,0,1,16.5.2h0l36.4,21c1.1,3.7-.1,9.5-.8,11.5l-.7,2.5,43.5,13.9,2.4-3.8c2.3-3.7,3.4-5.9,4.2-9,1.8-7.6,5.5-23.6-13.1-34.3l-38.3-22.1c-8.2-4.7-19.9-6.9-23.4-7.5-9.8-1.5-32.2-1.3-40.5-.3a57.1,57.1,0,0,0-21.7,7.2l-14,8.1c-12.5,7.2-20.6,20.3-9,32.1Z"/><polygon class="cls-6" points="1239.1 657.2 1239.1 680.7 1282.6 694.6 1282.6 671.1 1239.1 657.2"/><path class="cls-2" d="M1149.4,610.8a3.1,3.1,0,0,1,1.8-2.5,9.7,9.7,0,0,1,8.8,0,3.1,3.1,0,0,1,1.8,2.5v8.8m0,0a3.1,3.1,0,0,1-1.8,2.5,9.7,9.7,0,0,1-8.8,0,3.1,3.1,0,0,1-1.8-2.5v-8.8"/><ellipse class="cls-5" cx="1155.6" cy="610.8" rx="6.2" ry="3.6"/><path class="cls-2" d="M1181.2,600.4a3.1,3.1,0,0,1,1.8-2.5,9.5,9.5,0,0,1,8.7,0,3,3,0,0,1,1.9,2.5v8.7m0,0a3,3,0,0,1-1.9,2.5,9.5,9.5,0,0,1-8.7,0,3.1,3.1,0,0,1-1.8-2.5v-8.7"/><ellipse class="cls-5" cx="1187.4" cy="600.4" rx="6.2" ry="3.6"/><path class="cls-2" d="M1216.5,606.5a3.1,3.1,0,0,1,1.8-2.5,9.5,9.5,0,0,1,8.7,0,3.1,3.1,0,0,1,1.8,2.5v8.7m0,0a3.1,3.1,0,0,1-1.8,2.5,9.5,9.5,0,0,1-8.7,0,3.1,3.1,0,0,1-1.8-2.5v-8.7"/><ellipse class="cls-5" cx="1222.6" cy="606.5" rx="6.2" ry="3.6"/><path class="cls-2" d="M1244,620.3a3.1,3.1,0,0,1,1.8-2.6,9.5,9.5,0,0,1,8.7,0,3.1,3.1,0,0,1,1.8,2.6V629m0,0a3.1,3.1,0,0,1-1.8,2.5,9.5,9.5,0,0,1-8.7,0,3.1,3.1,0,0,1-1.8-2.5v-8.7"/><ellipse class="cls-5" cx="1250.2" cy="620.3" rx="6.2" ry="3.6"/><path class="cls-2" d="M1260.4,644.4a3.1,3.1,0,0,1,1.8-2.5,9.5,9.5,0,0,1,8.7,0,3.1,3.1,0,0,1,1.8,2.5v8.8m0,0a3.1,3.1,0,0,1-1.8,2.5,9.5,9.5,0,0,1-8.7,0,3.1,3.1,0,0,1-1.8-2.5v-8.8"/><ellipse class="cls-5" cx="1266.5" cy="644.4" rx="6.2" ry="3.6"/></g></g></svg>